<svg width="73" height="24" viewBox="0 0 73 24" fill="none" xmlns="http://www.w3.org/2000/svg">
<rect width="73" height="24" rx="4" fill="#FEF1EB"/>
<path d="M14.0013 13.3509C13.4553 13.3509 12.9981 13.1701 12.6299 12.8085C12.2616 12.4469 12.0775 12.0078 12.0775 11.4912V7.0877C12.0775 6.60037 12.2644 6.18614 12.6383 5.84501C13.0121 5.50388 13.4661 5.33331 14.0002 5.33331C14.5343 5.33331 14.9886 5.50388 15.3632 5.84501C15.7378 6.18614 15.9251 6.60037 15.9251 7.0877V11.4912C15.9251 12.0078 15.741 12.4469 15.3727 12.8085C15.0045 13.1701 14.5473 13.3509 14.0013 13.3509ZM14.0013 18.6666C13.6857 18.6666 13.4299 18.4108 13.4299 18.0952V16.2807C12.0838 16.152 10.9537 15.6316 10.0394 14.7193C9.26822 13.9498 8.82227 13.0638 8.70157 12.0613C8.66384 11.748 8.92381 11.4912 9.2394 11.4912V11.4912C9.55499 11.4912 9.80544 11.7485 9.85216 12.0607C9.97459 12.8786 10.369 13.5835 11.0354 14.1754C11.8517 14.9006 12.839 15.2631 13.9973 15.2631C15.1555 15.2631 16.1442 14.9006 16.9632 14.1754C17.6318 13.5835 18.0275 12.8786 18.1503 12.0606C18.1972 11.7486 18.4476 11.4912 18.7632 11.4912V11.4912C19.0788 11.4912 19.3388 11.748 19.301 12.0613C19.1803 13.0638 18.7344 13.9498 17.9632 14.7193C17.0489 15.6316 15.9188 16.152 14.5727 16.2807V18.0952C14.5727 18.4108 14.3169 18.6666 14.0013 18.6666V18.6666Z" fill="#ED5000"/>
<path d="M28.248 17H26.3477L29.834 7.10156H32.0215L35.5215 17H33.6211L32.7939 14.5527H29.0684L28.248 17ZM29.5469 13.1172H32.3154L30.9688 9.125H30.8867L29.5469 13.1172ZM38.4746 7.10156V17H36.6973V7.10156H38.4746ZM49.4805 6.89648V7.88086H51.9688V5.87109H53.4863V14.8672H51.9688V11.75H49.4805V12.8164H43.6699V6.89648H49.4805ZM45.1875 11.627H47.9766V8.09961H45.1875V11.627ZM45.3379 17.9707V14.0332H46.8828V16.7402H53.7598V17.9707H45.3379ZM49.4805 10.5332H51.9688V9.125H49.4805V10.5332ZM65.5859 5.85742V12.5977H64.0684V9.95898H61.9355V8.70117H64.0684V5.85742H65.5859ZM55.209 11.6133C57.1641 10.957 58.2168 9.35742 58.2305 7.73047H55.6602V6.48633H62.332V7.73047H59.7754C59.7891 9.21387 60.7871 10.7451 62.6875 11.3809L61.9219 12.5566C60.541 12.085 59.5635 11.1484 59.0234 9.98633C58.4834 11.2783 57.458 12.3174 55.9883 12.8164L55.209 11.6133ZM57.4375 18.0664V13.1172H58.9551V14.4023H64.0684V13.1172H65.5859V18.0664H57.4375ZM58.9551 16.8359H64.0684V15.5918H58.9551V16.8359Z" fill="#ED5000"/>
</svg>
