<svg width="24" height="24" viewBox="0 0 24 24" fill="none" xmlns="http://www.w3.org/2000/svg">
<path d="M9.58579 7.41421L10.7705 6.2295C10.9225 6.07749 11.1006 5.94971 11.2929 5.85357C12.2423 5.37887 13.412 5.72108 13.9387 6.64269L14.774 8.10454C14.9228 8.36485 15.0111 8.65527 15.0325 8.95432L15.4512 14.8175C15.4828 15.2599 15.3665 15.7003 15.1204 16.0694L14.0937 17.6094C13.7228 18.1658 13.0983 18.5 12.4296 18.5H11C9.89543 18.5 9 17.6046 9 16.5V8.82843C9 8.29799 9.21071 7.78929 9.58579 7.41421Z" fill="white"/>
<path d="M10.2324 3.02832C11.0182 1.65733 12.9818 1.65733 13.7676 3.02832L21.7236 16.9141C22.5094 18.2855 21.5265 20 19.9551 20H4.04492C2.47345 20 1.49063 18.2855 2.27637 16.9141L10.2324 3.02832ZM12 14.7871C11.3663 14.7872 10.8525 15.3008 10.8525 15.9346C10.8526 16.5682 11.3663 17.082 12 17.082C12.6337 17.082 13.1474 16.5683 13.1475 15.9346C13.1475 15.3008 12.6338 14.7871 12 14.7871ZM12 6.91797C11.3699 6.91801 10.8655 7.44067 10.8877 8.07031L11.0723 13.2354C11.0901 13.7349 11.5002 14.1308 12 14.1309C12.4999 14.1309 12.9099 13.7349 12.9277 13.2354L13.1123 8.07031C13.1345 7.44064 12.6301 6.91797 12 6.91797Z" fill="#FFCC00"/>
</svg>
