<svg width="24" height="25" viewBox="0 0 24 25" fill="none" xmlns="http://www.w3.org/2000/svg">
<path d="M5.61294 4.02026C5.01519 3.42253 4.04607 3.42253 3.44833 4.02026C2.85058 4.618 2.85058 5.58713 3.44833 6.18487L9.83543 12.572L3.44831 18.9591C2.85056 19.5568 2.85056 20.5259 3.44831 21.1237C4.04605 21.7214 5.01517 21.7214 5.61292 21.1237L12 14.7366L18.3871 21.1236C18.9848 21.7213 19.954 21.7213 20.5517 21.1236C21.1494 20.5258 21.1494 19.5567 20.5517 18.959L14.1647 12.572L20.5517 6.18496C21.1494 5.58722 21.1494 4.61809 20.5517 4.02036C19.9539 3.42262 18.9848 3.42262 18.3871 4.02036L12 10.4073L5.61294 4.02026Z" fill="#D0D0D0"/>
</svg>
