<svg width="24" height="24" viewBox="0 0 24 24" fill="none" xmlns="http://www.w3.org/2000/svg">
<path d="M12.0016 6.64676C11.512 6.64676 11.1016 7.02537 11.1016 7.50866V13.6784C11.1016 14.1617 11.512 14.5403 12.0016 14.5403C12.4912 14.5403 12.9016 14.1617 12.9016 13.6784V7.50866C12.9016 7.02537 12.4912 6.64676 12.0016 6.64676Z" fill="#F9F9F9"/>
<path d="M15.5016 8.54515C15.012 8.54515 14.6016 8.92376 14.6016 9.40705V13.7066C14.6016 14.1899 15.012 14.5685 15.5016 14.5685C15.9912 14.5685 16.4016 14.1899 16.4016 13.7066V9.40705C16.4016 8.92376 15.9912 8.54515 15.5016 8.54515Z" fill="#F9F9F9"/>
<path d="M8.50156 10.4435C8.01197 10.4435 7.60156 10.8222 7.60156 11.3054V13.6784C7.60156 14.1617 8.01197 14.5403 8.50156 14.5403C8.99115 14.5403 9.40156 14.1617 9.40156 13.6784V11.3054C9.40156 10.8222 8.99115 10.4435 8.50156 10.4435Z" fill="#F9F9F9"/>
<path fill-rule="evenodd" clip-rule="evenodd" d="M2.75156 2.84998C2.26197 2.84998 1.85156 3.22859 1.85156 3.71187C1.85156 4.19516 2.26197 4.57377 2.75156 4.57377L2.85156 4.57377V14.3852C2.85156 16.0508 4.27173 17.3879 6.00691 17.3879H9.72554L7.19556 19.6593C6.83104 19.9865 6.81442 20.5363 7.16 20.8831C7.50123 21.2256 8.06667 21.2401 8.42671 20.9169L12.0016 17.7075L15.5765 20.9169C15.9366 21.2401 16.502 21.2256 16.8432 20.8831C17.1888 20.5363 17.1722 19.9865 16.8077 19.6593L14.2776 17.3879H17.9962C19.7314 17.3879 21.1516 16.0508 21.1516 14.3852V4.57377H21.2516C21.7412 4.57377 22.1516 4.19516 22.1516 3.71187C22.1516 3.22859 21.7412 2.84998 21.2516 2.84998H2.75156ZM4.65156 14.3852L4.65156 4.57377L19.3516 4.57377V14.3852C19.3516 15.0843 18.7522 15.6641 17.9962 15.6641L6.00691 15.6641C5.25091 15.6641 4.65156 15.0843 4.65156 14.3852Z" fill="#F9F9F9"/>
</svg>
