<svg width="121" height="133" viewBox="0 0 121 133" fill="none" xmlns="http://www.w3.org/2000/svg">
<path d="M105.623 4.4218C112.622 4.7656 118.452 11.3154 118.63 19.0552L120.941 117.928C121.119 125.659 115.589 131.653 108.589 131.31L19.3152 126.902C12.3155 126.558 6.48555 120.008 6.30775 112.268L3.99636 13.3958C3.81856 5.66475 9.34905 -0.329657 16.3487 0.0141404L105.623 4.4218Z" fill="url(#paint0_linear_4284_15689)"/>
<path d="M108.595 131.309L19.3206 126.902C12.321 126.558 6.49102 120.008 6.31322 112.268L4.00184 13.3956C3.99248 12.9901 4.00184 12.5846 4.02055 12.1879C4.02055 12.0557 4.04862 11.9234 4.05798 11.7912C4.0767 11.5355 4.09541 11.2711 4.13284 11.0154C4.15156 10.8568 4.18899 10.7069 4.20771 10.5571C4.24514 10.3279 4.28257 10.0987 4.32936 9.87828C4.36679 9.71961 4.40422 9.5609 4.45101 9.41104C4.50716 9.19948 4.55395 8.97911 4.61945 8.76754C4.64753 8.67057 4.68496 8.58242 4.71303 8.48545C4.7879 8.24743 4.87212 8.00942 4.9657 7.77141C5.00313 7.67444 5.04056 7.56866 5.08735 7.47169C5.19028 7.21605 5.30258 6.96922 5.42423 6.73121C5.4523 6.6695 5.48038 6.60777 5.50845 6.54607C5.65818 6.24635 5.81726 5.96427 5.99506 5.68218C6.04185 5.61166 6.08864 5.54115 6.13543 5.47062C6.26644 5.25906 6.4068 5.05629 6.54717 4.85354C6.61268 4.76539 6.66882 4.68604 6.73433 4.59789C6.88405 4.40395 7.04314 4.21002 7.20222 4.0249C7.25837 3.96319 7.30516 3.90149 7.36131 3.83978C7.57654 3.60177 7.80112 3.37257 8.02571 3.15219C8.0725 3.10811 8.12865 3.06403 8.17544 3.01114C8.3626 2.83484 8.54975 2.67616 8.74627 2.51749C8.82113 2.45578 8.90535 2.39405 8.98021 2.33235C9.16737 2.1913 9.35453 2.05025 9.55104 1.91802C9.62591 1.86513 9.70077 1.81226 9.77563 1.76818C10.0377 1.60069 10.309 1.43319 10.5898 1.29214C10.6272 1.27451 10.6646 1.25688 10.7114 1.23043C10.9547 1.10702 11.2074 0.992431 11.46 0.886648C11.5536 0.851386 11.6472 0.816121 11.7408 0.772044C11.956 0.683891 12.1806 0.61336 12.3958 0.542837C12.4894 0.516391 12.5736 0.481152 12.6672 0.454706C12.976 0.366552 13.2848 0.287197 13.603 0.216675L9.62591 1.00125C9.30774 1.06296 8.99893 1.14229 8.69012 1.23925C8.59654 1.2657 8.50296 1.30097 8.41874 1.32741C8.19415 1.39794 7.97892 1.47728 7.76369 1.55662C7.67012 1.59188 7.57654 1.62712 7.48296 1.6712C7.23029 1.77698 6.97763 1.89159 6.73433 2.01501C6.6969 2.03264 6.65947 2.05027 6.61268 2.07672C6.33194 2.22658 6.06056 2.38524 5.79854 2.55273C5.72368 2.59681 5.64882 2.64971 5.57396 2.7026C5.37744 2.83483 5.19028 2.96706 5.00313 3.11692C4.9189 3.17863 4.84404 3.24033 4.75982 3.30204C4.56331 3.46071 4.37615 3.6282 4.18899 3.79569C4.1422 3.83977 4.08606 3.88385 4.03927 3.93674C3.80532 4.15712 3.59009 4.38632 3.37486 4.62433C3.31871 4.68604 3.27192 4.74777 3.21578 4.80947C3.05669 4.9946 2.89761 5.18853 2.74788 5.38246C2.68238 5.4618 2.62623 5.54994 2.56073 5.63809C2.42036 5.84084 2.27999 6.0436 2.14898 6.25517C2.10219 6.32569 2.0554 6.39621 2.00861 6.46673C1.84017 6.74882 1.68109 7.03974 1.522 7.33064C1.49393 7.39235 1.46586 7.45405 1.43778 7.51576C1.31613 7.76259 1.20384 8.00941 1.1009 8.25624C1.06347 8.35321 1.01668 8.45902 0.979249 8.55598C0.885671 8.794 0.80145 9.02319 0.726587 9.27002C0.698513 9.36699 0.661082 9.45512 0.633008 9.55209C0.62365 9.59617 0.604935 9.64027 0.595577 9.68434C0.548788 9.85183 0.511356 10.0281 0.464566 10.1956C0.427135 10.3543 0.380346 10.5042 0.342915 10.6628C0.296126 10.8832 0.258695 11.1124 0.221264 11.3416C0.19319 11.4915 0.165115 11.6413 0.146399 11.8C0.108968 12.0557 0.0902521 12.3113 0.0715364 12.5758C0.0621786 12.708 0.0434638 12.8402 0.0341059 12.9724C0.0153902 13.3691 0.00603195 13.7746 0.0153898 14.1801L2.32678 113.053C2.50458 120.784 8.33452 127.334 15.3342 127.686L104.608 132.094C105.563 132.138 106.48 132.067 107.369 131.9L111.346 131.115C110.457 131.292 109.54 131.362 108.585 131.309H108.595Z" fill="#500004"/>
<path d="M63.815 116.013C52.099 110.045 42.3107 100.701 42.2171 100.604L42.189 100.578C29.949 89.4264 29.3688 70.9495 29.3594 70.2619L28.7792 45.2617L95.6692 48.5674L96.2587 73.6558C96.2962 75.2955 96.4272 93.0143 85.0106 102.693C84.917 102.764 74.9509 110.945 63.8244 116.013M28.7044 42.3967V41.859L95.4633 45.1559V45.6936L28.7044 42.3967ZM34.6185 40.1576H34.7495C35.8444 40.2193 36.0409 39.7168 36.0222 38.7648L35.9474 35.6001L36.5275 35.6265H36.5743L36.6492 38.7912C36.6492 39.1791 36.6492 39.4436 36.6211 39.6022C36.5743 39.8843 36.4714 40.1312 36.2936 40.3163C35.9848 40.6689 35.5356 40.8364 34.9554 40.81L34.4127 40.7835C33.8231 40.7571 33.3739 40.5455 33.0464 40.1576C32.8593 39.9549 32.747 39.6904 32.6908 39.4083C32.6534 39.2496 32.6347 38.9852 32.6253 38.5973L32.5505 35.4326L33.3927 35.4767L33.4675 38.6414C33.4862 39.6111 33.8699 40.1223 34.5998 40.1576M43.939 39.7697C43.939 39.4612 43.8641 36.0409 43.8641 36.0409V35.988L44.4911 36.0232L44.6127 41.1714L43.9109 41.1361C43.9109 41.1361 41.1503 37.3984 40.9632 37.1428L41.0567 40.9951L40.4298 40.9598L40.3081 35.8117L41.0474 35.8469C41.0474 35.8469 43.7612 39.5229 43.9483 39.7697M48.2061 41.3477L48.0845 36.1995L48.8706 36.2348H48.9267L49.0484 41.3918L48.2061 41.3477ZM54.1297 40.5279C54.2139 40.2546 55.4304 36.561 55.4304 36.561L56.1697 36.5962L54.4104 41.6562L53.6431 41.6209L51.706 36.3759L52.6605 36.4199C52.6605 36.4199 54.0267 40.2369 54.1297 40.519M78.6847 42.8551L78.6566 41.7179L78.5911 38.8353L78.5537 37.6981L79.3491 37.7334H79.3959V37.7951L79.4239 38.8706L79.4894 41.7532L79.5175 42.8904L78.6753 42.8463M59.0519 41.8766L58.9302 36.7285L61.747 36.8695L61.7657 37.5659H61.7189H61.6815C61.5224 37.5659 60.8767 37.5218 60.3714 37.4954C60.1187 37.4866 59.9035 37.4689 59.7912 37.4689L59.8192 38.7912L61.382 38.8706L61.4007 39.5493L59.838 39.47L59.8754 41.2066L62.1587 41.3212L62.0745 42.0441L59.0519 41.8942M65.3591 42.1851L65.2374 37.037L66.8563 37.1163C67.343 37.1428 67.7266 37.2838 68.0167 37.5395C68.2975 37.7863 68.4285 38.1036 68.4378 38.4827C68.4378 38.8177 68.3349 39.1174 68.0916 39.3731C67.867 39.6023 67.5863 39.7345 67.4178 39.7874C67.633 40.0695 68.4659 41.1802 68.4659 41.1802H68.4472C68.7747 41.6121 69.1584 42.0176 69.5046 42.2821L69.6543 42.3967L68.9525 42.3614C68.5782 42.3438 68.2787 42.1851 68.0635 41.9119L66.3042 39.5229H66.3978C67.2026 39.4259 67.5956 39.1086 67.5769 38.5356C67.5769 38.2799 67.4927 38.0948 67.3242 37.9714C67.2026 37.8745 66.9031 37.751 66.1639 37.7158C66.1358 37.7158 66.1077 37.7158 66.0796 37.7158L66.1545 41.092C66.1732 41.7179 66.1732 41.9647 66.2107 42.141V42.2292L65.3404 42.1851M82.615 38.562L82.5963 37.8833L86.1803 38.0596L86.199 38.7383L84.8047 38.6678L84.9076 43.146L84.0654 43.1019L83.9625 38.6237L82.6056 38.5532M90.4101 40.4397C90.4943 40.2987 91.6921 38.3329 91.6921 38.3329L92.5062 38.3769L90.7469 41.189L90.8031 43.4369L89.9515 43.3928L89.8954 41.1449L88.0706 38.1477L89.0438 38.1918C89.0438 38.1918 90.3071 40.281 90.4007 40.4309M73.3226 42.0353C73.5472 42.0441 73.7624 41.9912 73.959 41.8766C74.1835 41.7444 74.2958 41.5681 74.2865 41.3389C74.2865 41.0479 74.0713 40.7659 73.6501 40.519L72.6582 39.9637L72.4149 39.8226C71.9564 39.4964 71.7318 39.0822 71.7131 38.6061C71.6944 38.1301 71.8909 37.7863 72.2839 37.5659C72.6208 37.372 73.0419 37.2926 73.5472 37.3103C73.9309 37.3279 74.3052 37.4072 74.6514 37.5395H74.6889L74.7076 38.4651L74.614 38.3857C74.3894 38.183 73.9496 38.0419 73.5191 37.9979C73.5004 37.9979 73.4817 37.9979 73.463 37.9979C73.229 37.9891 73.0419 38.0243 72.9015 38.0948C72.7144 38.1918 72.6208 38.3593 72.6301 38.5709C72.6301 38.8265 72.8454 39.091 73.2665 39.3378L73.8279 39.6463L74.4924 40.0254C74.9509 40.3515 75.1848 40.7306 75.1942 41.1361C75.2036 41.621 75.0445 42 74.6982 42.2821C74.3426 42.573 73.8279 42.7052 73.229 42.67C72.7611 42.6435 72.3026 42.5466 71.9096 42.3703H71.8815L71.7318 41.4535L71.8347 41.5152C72.2933 41.8149 72.7892 41.9824 73.3039 42.0088M28.6202 33.3786V32.8321L95.3697 36.129V36.6756L28.6202 33.3786ZM32.4194 31.0955L32.1668 20.3231L33.9354 20.4113L34.0571 25.5242L37.8283 20.6141L39.5876 20.7022L39.3817 20.9226C39.3817 20.9226 36.0222 25.2333 35.9006 25.3831C36.3872 25.9473 39.5595 29.7203 39.5595 29.7203C40.2894 30.5489 40.6356 30.8398 40.9912 31.1395L41.01 31.166L41.1503 31.2718L41.5059 31.5539L40.0555 31.4833C39.2039 31.4393 38.5863 31.1572 38.24 30.6635L34.0664 25.674L34.1974 31.1924L32.4288 31.1043M59.5385 32.4354L59.2858 21.6278L62.6827 21.7953C63.6934 21.8482 64.5075 22.1479 65.1158 22.6857C65.6866 23.2058 65.9861 23.8669 66.0048 24.6691C66.0235 25.3743 65.7708 25.9914 65.2749 26.538C64.8257 27.0316 64.2174 27.2872 63.8618 27.4107C64.311 28.0013 66.0516 30.3197 66.0516 30.3197C66.7253 31.2453 67.5395 32.0916 68.2787 32.647L68.5875 32.885L67.1277 32.8145C66.3229 32.7704 65.696 32.4618 65.2562 31.8712L61.5598 26.8465L61.7563 26.8288C63.4407 26.6437 64.2549 25.9649 64.2268 24.7837C64.2174 24.2636 64.0396 23.8669 63.6747 23.6024C63.422 23.3997 62.8044 23.1529 61.3071 23.0823C61.2323 23.0823 61.1574 23.0823 61.0732 23.0735L61.2416 30.1522C61.2697 31.4393 61.2884 31.9946 61.3539 32.3561V32.5324L59.5291 32.4442M72.2278 33.0525L71.9751 22.2537L77.908 22.5446L77.9454 23.9903H77.8331L77.7582 23.9815C77.4214 23.9639 76.0645 23.8934 74.9977 23.8405C74.4643 23.814 74.0057 23.7964 73.7905 23.7876L73.856 26.5732L77.1313 26.7319L77.1687 28.1511L73.9028 27.9925L73.987 31.6156L78.7689 31.8536L78.5911 33.361L72.2371 33.0437M82.4559 33.5638L86.3675 22.9589L88.0051 23.0383H88.08L92.5062 34.0574L90.5504 33.9604C90.5504 33.9604 89.0813 30.0729 89.0251 29.923L85.3475 29.7379C85.2913 29.8966 84.0374 33.6343 84.0374 33.6343L82.4652 33.5549M49.1232 20.8344C50.6579 20.9138 51.9586 21.5485 53.0254 22.7121C54.0454 23.8317 54.5788 25.1539 54.6163 26.6614C54.6537 28.301 54.1484 29.6674 53.1003 30.7076C52.0522 31.7478 50.7608 32.2327 49.2542 32.1621C47.7476 32.0916 46.4469 31.4921 45.3801 30.3814C44.2852 29.2531 43.7144 27.8514 43.6769 26.1941C43.6395 24.6426 44.1542 23.3204 45.2116 22.2713C46.2597 21.2399 47.5698 20.7551 49.1139 20.8256C49.1232 20.8256 49.1326 20.8256 49.1513 20.8256M28.2739 18.2604V17.7226L95.0235 21.0196V21.5573L28.2739 18.2604ZM97.4472 18.3309L96.2026 18.2692L25.5508 14.7783L26.8422 70.1209C26.8515 70.9231 27.2633 90.3697 40.6263 102.535L40.5982 102.508C41.01 102.914 51.0229 112.478 63.3191 118.623L63.553 118.746L64.2081 118.781L64.4514 118.667C76.0364 113.501 86.4985 104.906 86.6014 104.818C99.4497 93.9222 98.7479 74.458 98.7105 73.6294L97.4191 18.3221" fill="white"/>
<path d="M58.7025 103.162L57.7855 103.118C57.6638 103.118 57.72 103.215 57.72 103.215C58.0569 104.582 57.9726 106.265 57.9071 106.75C57.9071 106.75 57.851 106.882 57.9913 106.891L58.9178 106.935C59.0394 106.935 58.9926 106.812 58.9926 106.812C58.5715 105.049 58.7306 103.691 58.8055 103.286C58.8055 103.286 58.8429 103.171 58.7025 103.162Z" fill="white"/>
<path d="M61.8798 106.536C61.2061 106.501 61.0095 105.364 61.0095 105.364C60.8037 104.086 61.2622 104.051 61.2622 104.051C61.2996 104.042 61.3277 104.033 61.3651 104.042C61.7862 104.059 61.9921 105.003 61.9921 105.003C62.2541 106.254 61.9079 106.545 61.9079 106.545C61.9079 106.545 61.8892 106.545 61.8798 106.545M61.3932 103.178C61.3464 103.178 61.309 103.178 61.309 103.178C59.8398 103.266 59.9802 105.073 59.9802 105.073C60.1112 106.722 61.7301 107.109 61.7301 107.109C61.3183 108.344 60.158 108.661 60.158 108.661C59.8866 108.758 60.0831 108.855 60.0831 108.855C60.158 108.881 60.2422 108.899 60.3264 108.899C60.6352 108.917 60.9347 108.802 60.9347 108.802C63.0589 107.894 63.0589 105.505 63.0589 105.505C63.0496 103.398 61.7301 103.195 61.3839 103.178" fill="white"/>
<path d="M65.3886 106.607C64.8926 106.581 64.8084 105.435 64.8084 105.435C64.7148 104.121 65.2108 104.024 65.2108 104.024C65.2482 104.024 65.2763 104.015 65.3044 104.024C65.7348 104.042 65.8752 104.888 65.8752 104.888C66.1466 106.378 65.529 106.598 65.529 106.598C65.4822 106.616 65.426 106.625 65.3886 106.625M65.2295 103.363C65.2295 103.363 65.2108 103.363 65.2015 103.363C65.1079 103.363 63.882 103.337 63.8633 105.188C63.8633 105.188 63.8633 107.145 65.426 107.215C65.4635 107.215 65.4915 107.215 65.529 107.215C65.529 107.215 67.1666 107.198 66.7736 104.923C66.7736 104.923 66.5396 103.425 65.2389 103.363" fill="white"/>
<path d="M70.1496 103.531H70.1215C69.8408 103.663 69.1202 103.654 68.5681 103.628C68.1751 103.61 67.8663 103.575 67.8663 103.575L67.623 105.488C67.623 105.488 69.3916 105.655 68.9799 107.119C68.9799 107.119 68.7085 107.921 67.6791 107.868C67.5388 107.868 67.3797 107.842 67.2112 107.797C67.2112 107.797 67.1925 107.797 67.1832 107.797C67.0802 107.797 67.0428 107.886 67.0428 107.886C66.9773 107.983 67.099 108.053 67.099 108.053C67.5107 108.247 67.8944 108.309 68.1657 108.326C68.4371 108.344 68.5962 108.309 68.5962 108.309C70.0654 108.062 70.0841 106.722 70.0841 106.722C70.0748 105.056 68.6711 104.959 68.5775 104.959L68.643 104.43L69.5226 104.395C70.1028 104.377 70.187 103.742 70.187 103.742C70.2151 103.566 70.187 103.531 70.159 103.531" fill="white"/>
<path d="M61.3157 71.3905C61.2689 71.3905 61.2221 71.4081 61.1847 71.4522L60.9226 71.6461C60.698 71.9987 61.0817 72.8274 61.0349 73.321C60.9881 73.7089 60.8384 74.5288 61.0724 74.8902C61.1191 74.9783 61.1753 75.2075 61.325 75.2164C61.325 75.2164 61.3344 75.2164 61.3437 75.2164C61.4654 75.2164 61.6338 75.1194 61.7368 74.9166C62.0924 74.2731 62.2421 73.1448 62.0456 72.272C62.0269 72.2015 61.7929 71.9547 61.7555 71.8665C61.69 71.7431 61.6806 71.5051 61.559 71.4698C61.4841 71.4434 61.3999 71.3905 61.325 71.3817" fill="white"/>
<path d="M52.3533 70.6765C52.2503 70.6765 52.1568 70.6765 52.0538 70.6853C51.3894 70.7823 50.4069 71.1349 49.9577 71.4963C49.9577 71.4963 49.7892 71.8137 49.9577 71.8225C49.9857 71.8225 50.0138 71.8225 50.0513 71.8048C50.0513 71.8048 50.1448 71.7872 50.1916 71.796C50.2571 71.796 50.332 71.8137 50.3975 71.8225C50.4536 71.8225 50.5191 71.8401 50.5659 71.8401C50.594 71.8401 50.6221 71.8401 50.6502 71.8401L50.9215 71.7431C51.09 71.6285 51.2678 71.6109 51.4362 71.6197C51.5766 71.6197 51.7076 71.655 51.848 71.6726C52.007 71.699 52.4843 71.9282 52.634 71.9459C52.8773 71.9899 54.0564 72.1839 55.3104 72.4307C55.2917 72.4307 55.9748 72.369 55.8063 72.1663C55.825 72.1927 55.8438 72.2015 55.8438 72.2015C55.8531 72.2015 55.7221 72.034 55.5256 71.9459L55.4414 71.8401C55.4414 71.8401 55.2261 71.6373 55.6005 71.5139L55.9654 71.3641C56.1245 71.179 55.8812 70.9762 55.8812 70.9762C55.7595 70.9321 55.6285 70.9057 55.5069 70.8968C55.2917 70.888 55.0671 70.9233 54.8238 70.9498C54.5898 70.9762 54.3278 71.0026 54.0564 70.9938C53.9535 70.9938 53.8505 70.9762 53.7476 70.9586C53.3826 70.9057 52.8867 70.6941 52.372 70.6677" fill="white"/>
<path d="M57.3726 67.0706L56.9515 67.1852C56.0718 67.5731 56.0344 68.3136 55.5291 69.0012L55.2577 69.1863C55.108 69.4243 55.136 69.8298 54.9021 69.9532C54.743 70.0502 54.3126 70.156 54.2003 70.2706C54.0693 70.4204 54.4342 70.5262 54.4342 70.5262C56.2403 70.5086 55.894 69.4772 56.6333 68.4635C56.886 68.1108 57.9808 68.1197 58.037 67.6613C58.037 67.6613 58.0089 67.5202 57.9247 67.3792C57.8405 67.2293 57.6907 67.0794 57.4287 67.0706C57.4194 67.0706 57.4006 67.0706 57.3913 67.0706H57.3726Z" fill="white"/>
<path d="M63.2938 64.4688C63.2376 64.4688 63.1815 64.4688 63.116 64.5128L62.9662 64.698C62.9101 64.8037 62.8446 64.9624 62.8165 65.0682C62.751 65.4385 62.5545 65.8792 62.4235 66.4258C62.3486 66.7079 62.1053 67.0517 62.0398 67.272C61.7591 68.1359 61.9462 69.5023 62.1708 70.2252C62.358 70.8423 63.1347 71.6709 63.1534 72.288C63.2002 73.1519 62.0772 73.7777 62.2737 75.0648C62.3299 75.4174 62.7136 75.7612 62.8071 76.0962C63.2657 77.5419 62.4703 79.2344 63.0037 80.7418C63.0224 80.7771 63.1253 80.8917 63.3499 80.9005C63.406 80.9005 63.4809 80.9005 63.5558 80.8829C63.64 80.8829 63.6494 80.7595 63.8459 80.7154L63.9675 80.592C64.0611 80.5126 64.164 80.4862 64.2202 80.3628L64.4261 80.1865C64.6787 79.9044 64.8191 79.6576 64.8846 79.1551C65.0437 78.0179 64.5571 76.8895 64.6787 75.6907C64.7068 75.2058 64.9969 74.4477 64.8846 73.8395C64.8659 73.7249 64.5851 73.1519 64.5477 73.0637C64.2763 72.4819 63.9956 71.9618 63.9114 71.2918C63.7616 70.1635 64.3044 69.7139 64.5103 69.0968C64.66 68.6472 64.5571 67.2456 64.4635 66.6285C64.4261 66.4522 63.7242 64.742 63.64 64.6803C63.5371 64.5834 63.4061 64.4864 63.2657 64.4776" fill="white"/>
<path d="M77.7716 62.169C77.6874 62.169 77.6032 62.169 77.5096 62.169C77.0791 62.2042 76.6861 62.5657 76.3305 62.6803C75.7503 62.8654 75.2731 62.7949 74.5151 62.8213C74.4683 62.8213 74.4028 62.8213 74.3279 62.8213C74.253 62.8213 74.1782 62.8125 74.0846 62.8037C74.0098 62.8037 73.9255 62.7949 73.8413 62.7861C73.5138 62.7684 73.1675 62.7684 72.9991 62.8566C72.7839 62.9624 72.6809 63.4648 72.8119 63.9849C72.9617 64.5491 74.1501 65.5453 75.1046 65.5981C75.1795 65.5981 75.2543 65.5981 75.3292 65.5981C75.5257 65.5717 76.3024 65.2367 76.4989 65.0957C76.6206 64.9811 76.7048 64.6549 76.7984 64.5315C77.0978 64.1613 77.4722 63.9938 77.8558 63.694L78.174 63.3502L78.3331 63.1916C78.6606 62.5569 78.4079 62.2042 77.7716 62.169Z" fill="white"/>
<path d="M76.0486 60.2918C75.6462 60.2742 74.6449 60.6268 74.3268 60.6973C73.9992 60.7767 73.784 60.8295 73.5033 60.9618C73.4378 60.997 73.1102 61.2703 73.1009 61.2703C73.1009 61.2703 72.8389 61.4819 73.2787 61.6229C73.2787 61.6229 73.5688 61.7728 73.8963 61.7904C73.9805 61.7904 74.0741 61.7904 74.1677 61.7728C74.4484 61.7199 74.9912 61.4731 75.2719 61.4378C75.3 61.4378 75.3374 61.4378 75.3655 61.4378C75.4216 61.4378 75.4778 61.4466 75.5433 61.4643C75.5994 61.4643 75.6462 61.4731 75.7024 61.4819C75.7585 61.4907 75.796 61.4819 75.8427 61.4731C76.2919 61.3497 77.106 60.4593 76.1048 60.3095C76.086 60.3095 76.0673 60.3095 76.058 60.3095" fill="white"/>
<path d="M64.2128 59.1986C63.4454 59.1633 61.2276 62.3368 62.5471 63.0509C62.6781 63.1302 62.7997 63.1391 62.9307 63.1479C62.9588 63.1479 62.9775 63.1479 63.0056 63.1479C63.043 63.1479 63.0805 63.1479 63.1272 63.1479C63.2115 63.1479 63.2957 63.1655 63.3986 63.1919L63.7729 63.4035H63.7917C64.5216 63.4388 64.6526 62.6718 65.1485 62.5837C65.2515 62.566 65.3357 62.5572 65.4199 62.5661C65.8972 62.5925 65.944 62.9804 66.1873 63.0333C66.1873 63.0333 66.2715 63.0421 66.2996 63.0509C66.7581 63.0773 66.6364 62.5749 66.6364 62.5749C66.5803 62.2223 66.1124 61.5523 65.8691 61.3495C65.6352 61.1556 65.3731 61.1644 65.2047 60.9264C64.9801 60.5738 64.9614 59.657 64.7181 59.4278L64.2315 59.2074C64.2315 59.2074 64.2315 59.2074 64.2221 59.2074" fill="white"/>
<path d="M76.9443 60.2108L76.9258 60.263L76.9443 60.2108Z" fill="white"/>
<path d="M71.6445 76.7935L71.662 76.8022L71.6445 76.7935Z" fill="white"/>
<path d="M52.192 68.9652C52.061 68.9652 51.827 68.8859 51.8738 68.4187C51.9955 67.3873 52.1826 67.2022 52.6692 66.7879C52.7347 66.735 52.9219 66.5939 53.0155 66.5851C53.1371 66.5587 53.2775 66.5587 53.4272 66.5675C54.0168 66.5939 54.7467 66.8319 54.9058 67.0964C55.0836 67.3608 54.7467 67.925 54.7654 67.925C54.7373 67.925 54.7093 67.925 54.6905 67.925C54.5034 67.9162 54.3724 67.7311 54.1946 67.5548C54.0168 67.3697 53.8015 67.1757 53.4553 67.1581C53.3056 67.1581 53.1371 67.1757 52.9406 67.2374L52.4914 67.643C52.3604 67.9867 52.454 68.8859 52.2949 68.9564C52.2949 68.9564 52.2575 68.9564 52.2013 68.9564M60.6515 63.0061C60.6515 63.0061 60.6047 63.0061 60.5766 63.0061C60.5579 63.0061 60.5486 63.0149 60.5392 63.0149C60.5392 63.0149 60.5392 63.0149 60.5298 63.0149V62.9973C60.0432 63.2794 58.9484 63.6849 58.7238 64.1873C58.6021 64.4606 58.6115 64.681 58.5085 65.016C58.4992 65.0424 58.3588 65.0953 58.3214 65.1923C58.1436 65.1923 57.9845 65.1746 57.8161 65.1658C57.4698 65.1482 57.1517 65.1482 56.8335 65.2187C56.4685 65.3069 55.9539 65.6947 55.5515 65.7476C55.4017 65.7741 55.2614 65.7741 55.121 65.7653C54.8683 65.7565 54.625 65.7036 54.3817 65.6507C54.1384 65.5978 53.8951 65.5449 53.6518 65.5273C53.5395 65.5273 53.4272 65.5273 53.3056 65.5361C52.9593 65.5802 52.7441 65.9504 52.4727 66.0826C52.2294 66.1972 52.1358 66.1884 51.9487 66.3647L51.7802 66.5675C51.7522 66.6468 51.6773 66.8407 51.6212 66.9289C51.4621 67.1845 51.3966 67.4578 51.3685 67.7487C51.3311 68.022 51.1907 68.692 51.0597 68.9652C50.9942 69.0975 50.6479 69.3796 50.6012 69.503C50.5731 69.5823 50.4982 69.6616 50.6012 69.7939C50.5731 69.7674 50.5544 69.7498 50.545 69.7498C50.5076 69.7498 50.6386 69.9349 51.172 69.9966C51.1813 69.9966 51.1907 69.9966 51.2094 69.9966C51.958 70.0319 53.5115 69.6087 53.5115 69.6087L54.2694 69.2033C54.4192 69.0887 55.0087 68.6391 55.1304 68.4804C55.617 67.8457 56.7961 65.73 57.8909 65.7829C58.0313 65.7829 58.1717 65.8358 58.3027 65.9151L58.5085 66.0826C58.7986 66.5939 58.4805 67.9956 58.2746 68.3041L58.0219 68.6303C57.8067 68.692 57.6851 69.2561 57.6476 69.5206C57.6102 69.9437 57.7412 70.3316 57.7693 70.5696C57.8348 71.0809 57.9003 71.7244 57.6195 72.3415C57.5634 72.4649 57.395 72.6765 57.4511 73.0203C57.5073 73.4081 58.0407 73.7167 58.1155 74.0341C58.1717 74.2015 58.3027 74.228 58.1249 74.5277C58.0407 74.6864 57.6102 74.9508 57.4979 75.0831C57.3295 75.2594 57.4885 75.5503 57.6008 75.6649C57.9284 75.991 58.1904 76.0439 58.4524 76.4142C58.8174 76.9166 58.7986 77.3398 59.5941 77.4544C59.7438 77.472 59.9029 77.4985 60.0526 77.5073C60.5579 77.5337 60.9977 77.4103 60.6983 76.7227L60.5018 76.3789C60.2772 75.7971 59.8654 75.2506 59.8093 74.6247C59.7157 73.8137 60.3333 73.4346 60.0526 72.7734C59.8374 72.2622 58.9109 72.271 58.8174 71.6186C58.7706 71.2572 59.0981 70.4991 59.1542 70.1553C59.2104 69.6881 59.0981 69.3796 59.2291 68.9829C59.3133 68.692 59.7157 68.3922 59.7438 68.0308C59.8186 67.3785 59.3414 66.9465 59.5286 66.2501C59.6221 65.8887 60.1649 65.9592 60.352 65.6947C60.6047 65.3421 60.4456 64.8309 60.5953 64.3284L60.7638 63.9229L60.8574 63.2705C60.8012 63.0413 60.7076 62.9973 60.6234 62.9885" fill="white"/>
<path d="M57.1946 93.2178C56.8765 93.2002 54.7522 91.2608 55.0423 90.1324C55.6599 90.6349 57.0449 91.7016 57.2414 91.7104C57.4192 91.8338 57.6064 93.112 57.1946 93.2178ZM59.8897 93.4029C59.8055 93.4029 59.7119 93.3765 59.609 93.3412C59.3376 93.0768 57.2789 90.7319 57.7467 89.7181C58.3082 90.3264 59.8803 91.8955 60.4325 92.0718C60.5728 92.4685 60.5915 93.4382 59.8897 93.4029ZM50.6254 85.7071C49.7645 85.6631 48.4918 84.4554 48.1175 83.803C47.8649 83.4592 48.2205 83.2212 48.3421 83.1507C48.5012 83.1154 48.6322 83.1066 48.7539 83.1066C49.175 83.1242 49.3808 83.4152 49.6709 84.1116C49.9517 84.6493 50.5038 85.3722 50.7284 85.7071C50.6909 85.7071 50.6629 85.7071 50.6254 85.7071ZM61.518 92.0013C61.387 92.0013 61.2653 91.9572 61.153 91.869C60.7225 91.5693 60.7132 91.2432 60.4231 89.1539C60.2921 87.9198 58.8697 87.435 58.2614 86.8443C57.6532 86.3507 57.9901 86.1391 57.859 85.284C57.4847 84.0499 56.1278 83.4064 56.5583 82.6042C56.6612 82.4631 56.7548 82.3309 56.97 82.3397C57.0449 82.3397 57.1478 82.3661 57.2601 82.419C57.2976 83.0273 58.6825 83.5562 59.6277 84.7639V84.7815C59.9833 85.3545 60.4792 85.6983 60.4792 86.8972C60.4605 87.144 60.5167 87.2322 60.6851 87.241C60.7132 87.241 60.7413 87.241 60.7787 87.241C60.9846 87.1881 60.8536 85.8834 61.4244 85.9187C61.4431 85.9187 61.4618 85.9187 61.4805 85.9187C62.0139 86.0333 61.6677 86.8091 61.9671 87.717C62.0701 88.0344 62.7064 89.2068 62.5848 91.155C62.5848 91.5605 62.0233 92.0277 61.5273 92.0013M55.1078 85.3545C54.4902 85.3281 52.5906 84.5788 51.8419 83.0008C51.6548 82.7716 51.7952 82.3573 52.132 82.2075C52.3098 82.1281 52.4596 82.1017 52.5812 82.1017C52.89 82.1193 53.0585 82.3485 53.1614 82.4719C53.7884 83.4945 54.6025 84.8168 55.1921 85.3457C55.1733 85.3457 55.1453 85.3457 55.1266 85.3457M40.9868 80.8763C41.4734 80.5854 41.9413 80.2593 42.3812 79.9419C42.5964 80.2152 42.821 80.4532 43.083 80.6912C42.821 80.7529 42.0068 80.8234 40.9868 80.8763ZM41.8197 79.2984C41.2114 79.272 40.0791 79.1397 38.9375 78.9811C39.892 78.743 40.7435 78.4962 41.0898 78.2935C41.2208 78.2935 41.3424 78.2935 41.4734 78.2935C41.5389 78.5755 41.6325 78.8488 41.801 79.1397L41.9039 79.2984C41.9039 79.2984 41.8478 79.2984 41.8197 79.2984ZM51.7952 80.0301C51.9823 80.0389 52.1695 80.0213 52.3941 79.889C52.5251 79.8097 52.6748 79.5805 52.8058 79.4747C52.9087 79.3777 53.1146 79.3954 53.2456 79.3072C53.5638 79.0956 54.1533 78.3904 54.5651 78.3287C54.6212 78.3287 54.668 78.3199 54.7054 78.3199C54.8177 78.3199 54.8365 78.3728 54.9207 78.3904C54.9207 78.4169 55.1078 78.364 55.0704 78.7342C55.033 78.9899 55.2108 79.0692 55.5102 79.0868C55.7067 79.0956 55.9594 79.078 56.2308 79.0604C56.5022 79.0428 56.8016 79.0251 57.0823 79.0339C57.2789 79.0428 57.4754 79.0692 57.6532 79.1221C58.3737 79.3425 59.0943 79.6334 58.9165 80.1094L58.6545 80.2945C58.5047 80.4003 58.3644 80.4356 58.2334 80.4268C57.9433 80.4091 57.7 80.1887 57.5222 80.1535C57.4567 80.1447 57.3911 80.1359 57.3256 80.1359C57.1853 80.1359 57.0543 80.1359 56.9233 80.1359C56.811 80.1359 56.6987 80.1535 56.577 80.1359C56.4928 80.1359 56.4179 80.127 56.3244 80.1094L55.7816 79.8979C55.7816 79.8979 55.7535 79.8979 55.7348 79.8979C55.3979 79.8802 54.9394 80.0301 54.6961 80.0389C54.6399 80.0389 54.5838 80.0389 54.5276 80.0389C54.3592 80.0389 54.2188 79.9948 54.0878 79.9596C53.9568 79.9243 53.8165 79.889 53.6574 79.8802C53.6106 79.8802 53.5731 79.8802 53.5264 79.8802C53.3111 79.889 52.9742 80.1799 52.8152 80.224C52.6748 80.2681 52.5157 80.321 52.366 80.3562C52.2724 80.3739 52.0291 80.5061 51.9168 80.5502C51.477 80.7529 51.215 80.7441 50.6722 80.8763L50.3634 80.9469C50.2979 80.9469 50.2511 80.9469 50.195 80.9469C49.7083 80.9204 49.7458 80.5325 49.9236 80.4091H49.9423H49.961C50.092 80.3562 50.6909 80.0918 50.85 80.0389C51.0278 79.986 51.1869 79.9772 51.3366 79.9772C51.4208 79.9772 51.5051 79.9948 51.5799 80.0036C51.6548 80.0036 51.739 80.0213 51.8139 80.0213M73.9733 53.0464C73.7861 53.0376 73.5896 53.0376 73.3931 53.0376C73.2901 53.0376 73.1872 53.0376 73.0843 53.0376C72.9813 53.0376 72.869 53.0287 72.7661 53.0199C72.6632 53.0199 72.5602 53.0111 72.4479 53.0023C71.9426 52.9759 71.3718 52.9759 70.7074 53.1434C70.3143 53.2227 69.7809 53.5577 69.416 53.6635C69.1633 53.734 68.9387 53.7781 68.7048 53.875C68.3866 53.9896 68.0965 54.1748 67.6567 54.2717C67.1982 54.3599 66.6835 54.3599 66.1595 54.3334C65.9068 54.3246 65.6448 54.2982 65.3921 54.2805C65.1301 54.2629 64.8774 54.2453 64.6248 54.2277C64.185 54.21 63.7638 54.2012 63.3802 54.2453C62.2572 54.3775 61.6209 55.0915 60.7038 55.4001C60.4231 55.4794 60.3014 55.4442 60.0301 55.5411C59.871 55.5852 59.4873 55.6822 59.3563 55.7527C58.9726 55.9466 58.7293 55.9995 58.2989 56.167C58.0836 56.2552 57.831 56.4579 57.6251 56.5549C57.3163 56.7047 57.2976 56.7488 57.0449 56.9339L56.839 57.0926L56.3337 57.5598C56.1559 57.745 55.9875 58.0182 55.8377 58.2122C55.3792 58.7675 54.6867 59.4728 54.1065 59.8959C53.9007 60.0546 53.7416 60.0017 53.5638 60.178C53.3486 60.3455 53.152 60.5306 52.9462 60.6804C52.4596 61.0331 51.973 61.2534 51.4489 61.5355L51.112 61.7647C50.6722 62.0556 50.6909 62.1879 50.2137 62.4788C49.9142 62.6903 49.7832 63.0165 49.5025 63.2634C49.3153 63.4044 49.1188 63.8804 48.9972 64.0743C48.4357 64.9471 48.2392 66.2694 47.8461 67.3801C47.7338 67.6974 46.7513 69.1961 46.4986 69.2842L46.3115 69.4605C46.1711 69.5751 46.1711 69.6192 46.0494 69.7426C45.75 70.007 45.4505 70.1657 45.2353 70.5007C45.0481 70.7564 44.9452 71.0649 44.7861 71.3558C44.5241 71.8054 44.103 72.2991 43.8971 72.7927C43.8129 72.9778 43.738 73.1629 43.6819 73.3304L43.6445 73.3921C43.5322 73.5332 43.3544 74.1679 43.3544 74.1679C43.1485 74.6704 42.6712 74.926 42.0443 75.8692C42.0162 75.8692 41.9881 75.8692 41.9507 75.8692C41.0898 75.8252 38.5912 75.023 36.8413 74.0797C37.2624 74.5646 39.2931 76.0896 41.6325 76.4687C41.4828 76.7067 41.4734 76.9447 41.1927 77.0152C41.0336 77.0505 40.8652 77.0593 40.6687 77.0505C39.6954 77.0064 38.2543 76.4511 36.4108 75.6753C36.5512 76.0015 38.4976 77.2973 41.3612 77.6147C41.2021 77.8086 40.5096 77.8791 39.5457 77.8351C38.0298 77.7645 35.84 77.3943 33.9591 76.7684C33.8561 77.0946 37.6461 78.1789 39.8358 78.2846C39.8826 78.2846 39.9294 78.2846 39.9762 78.2846C39.6112 78.4698 38.638 78.6549 38.0204 78.8664C37.0378 78.699 35.6529 78.4521 35.3908 78.3375C35.4563 78.5491 36.4389 78.8753 37.2437 79.1133C36.4763 79.3689 35.3347 79.4747 34.8855 79.554C34.9417 79.5717 35.0165 79.5805 35.1101 79.5893C35.6154 79.6158 36.6635 79.4747 37.749 79.2367C38.8158 79.51 40.4066 79.8009 41.4079 79.8538C41.4922 79.8538 41.567 79.8538 41.6325 79.8538C41.3892 79.9684 40.4909 80.5414 39.789 80.9469C37.9642 81.035 35.971 81.1056 35.5406 81.1408C35.6903 81.1761 36.3547 81.229 37.2437 81.273C37.8052 81.2995 38.4509 81.3259 39.1059 81.3348C38.0765 81.9342 36.9723 82.5601 36.4389 82.7805C37.2343 82.6041 38.638 82.1017 40.0791 81.3524C41.5202 81.3524 42.8678 81.3083 43.4199 81.1232C43.2421 81.5639 42.1285 83.6267 41.0523 84.0587C41.5202 84.0058 43.0081 83.6267 43.8691 81.273C44.1966 81.4405 44.5709 81.5375 44.992 81.5904C45.2447 81.9783 45.8342 82.992 46.9104 83.0978C47.1069 83.662 48.6041 86.2449 50.7096 86.3507C51.112 86.3683 51.5425 86.2978 51.9823 86.1038C51.1682 85.6013 50.6629 85.0901 50.2324 83.6973C50.2605 83.6973 50.2885 83.6973 50.3166 83.6973C51.6174 83.759 54.8365 85.8394 55.8939 89.9209C55.1078 89.5947 54.1253 89.0746 54.013 88.6515C53.8258 89.6035 53.7042 90.82 55.7535 93.0503C55.8003 93.5087 55.8097 94.0552 55.9126 94.5665C56.2495 94.9456 56.6425 95.2277 56.9981 95.5715C57.0356 96.1621 56.97 96.9908 58.4767 97.5285C58.9913 97.9957 60.6196 98.551 60.8723 98.8596C61.2466 99.0006 61.7706 99.0712 62.2292 99.0976C62.3602 99.0976 62.4912 99.1064 62.6035 99.0976C62.6035 99.0976 63.296 99.0095 63.4831 98.7362C63.8294 98.7362 64.316 98.745 66.4121 96.4178C66.8519 95.8712 66.3279 92.7065 66.4121 91.9484C66.6086 91.4018 66.6929 90.8994 66.9642 90.2294C66.9642 90.2294 67.245 89.5682 67.7877 89.3302L67.9 89.3038C68.031 89.2773 68.1714 89.2685 68.3118 89.2773C69.4815 89.339 70.8665 90.4145 71.5589 90.7583C71.8397 90.8994 71.98 90.8377 72.214 90.9963C72.3263 91.058 72.4854 91.3313 72.5977 91.4107C72.8784 91.587 73.1404 91.5517 73.4492 91.7456C73.8797 92.0101 74.7406 93.306 75.4892 93.3412C75.536 93.3412 75.5735 93.3412 75.6202 93.3412C75.8729 93.2883 76.0507 92.7153 76.2472 92.5743C76.6122 92.3539 77.1269 92.398 77.4544 92.1423C77.8193 91.8426 77.6509 91.49 77.707 91.0668C77.707 91.0404 77.8755 90.8553 77.8848 90.7671C78.072 90.7671 78.4744 90.7936 78.7271 90.7319L78.9048 90.5467C79.0639 90.3704 78.9423 90.1765 78.8955 90.0355C78.8393 89.8768 78.4557 89.6652 78.3247 89.5242C78.0439 89.2156 77.548 88.766 77.3608 88.3958C77.2672 88.2195 77.3795 88.1754 77.2579 87.9903C77.1362 87.7787 76.79 87.5496 76.6964 87.2851C76.3221 86.4212 76.4157 84.5523 76.2472 84.2702C76.0975 84.0146 75.9103 84.0322 75.7606 83.7942C75.4424 83.2565 75.7887 81.608 75.798 80.9469C75.798 80.7089 75.7045 80.6383 75.6015 80.6295C75.4705 80.6295 75.3208 80.7177 75.3208 80.7177C74.9371 81.7579 74.9933 82.2339 74.9278 83.7501C74.9184 83.8824 74.7687 84.6934 74.7687 84.8344C74.7687 85.3634 75.0868 86.2713 74.8997 86.906C74.8342 87.1088 74.4505 87.4702 73.9078 87.4438C73.9078 87.4438 73.8984 87.4438 73.889 87.4438C73.6832 87.4349 72.6257 87.0912 72.3918 86.9766L72.1111 86.6592C71.9426 86.5093 71.8116 86.4564 71.7274 86.4476C71.5309 86.4388 71.4841 86.6768 71.4654 86.8179C71.4466 87.0383 71.5402 87.0911 71.587 87.2146C71.6151 87.338 71.8397 87.814 71.8116 87.8581C71.8116 87.8933 71.7367 88.1049 71.4279 88.0961C71.2501 88.0961 71.0068 87.9991 70.6419 87.7611C69.9026 87.2586 69.1446 85.9364 69.1072 85.716C68.9949 85.2135 69.1259 84.8521 69.2195 84.6846C69.3037 84.6052 69.4066 84.57 69.5002 84.5788C69.7903 84.5964 70.1178 84.9226 70.3892 85.0901C70.4828 85.143 70.7074 85.3281 70.8197 85.3545C70.8571 85.3634 70.9039 85.3722 70.9507 85.3722C71.1565 85.381 71.3811 85.3369 71.4279 85.3369C71.5309 85.3369 71.6338 85.3369 71.7367 85.3369C72.0455 85.3545 72.345 85.3898 72.6351 85.425C72.9158 85.4603 73.1872 85.4956 73.4399 85.5044C74.0107 85.5308 74.4318 85.4339 74.5535 84.9402C74.6845 84.3143 74.0949 83.9529 73.992 83.6796C73.8516 83.3534 73.9171 83.3358 73.8329 82.9832L73.7019 82.6923C73.5428 82.4278 73.6364 82.1987 73.496 81.9077C73.3369 81.5816 72.9158 81.37 72.738 81.0791C72.4947 80.7089 72.4854 80.2505 72.1485 79.9684C71.6619 79.5276 69.7435 78.8312 69.5096 78.3552C69.1259 77.5882 69.5376 76.2483 69.3411 75.3051C69.2382 74.7497 69.0604 74.4412 68.7329 74.0886C68.6112 73.9563 68.5363 73.7447 68.5831 73.5773C68.658 73.2511 68.8264 73.3481 68.9013 72.6164C68.9481 72.2197 68.8452 71.7525 68.8732 71.3382L69.0417 70.5712C69.1072 69.4693 68.9387 68.3145 68.6954 67.5123C68.5738 67.1244 68.2182 66.763 68.1059 66.4016C68.0029 66.0931 68.1152 65.9168 67.9936 65.5994C67.8907 65.3261 67.5631 65.1234 67.4321 64.8942C67.1701 64.4887 67.2262 63.8187 66.8426 63.5807C66.7677 63.5366 66.7022 63.5102 66.6461 63.5102C66.5899 63.5102 66.5431 63.5278 66.5151 63.5366C66.487 63.5543 66.4776 63.5719 66.4683 63.5719C66.384 63.9245 66.4121 64.2771 66.5899 64.7531C66.6648 64.9559 67.0204 65.2732 67.0859 65.4584C67.1701 65.8286 67.0485 66.2694 67.114 66.6396L67.3011 67.0539C67.4696 68.0501 66.9923 69.3371 66.6273 69.8572C66.3747 70.2186 65.5793 70.6418 65.5512 71.1795C65.5138 71.5145 65.6448 71.5409 65.7383 71.682C65.86 71.8671 66.253 72.1227 66.3185 72.2991C66.3653 72.4313 66.4028 72.4048 66.4589 72.5371L66.5151 72.8103C66.5993 73.5067 65.7477 73.6213 66.1782 74.4676C66.3092 74.7056 66.7022 74.7321 66.9268 74.8908C67.3573 75.1993 68.1901 76.0279 68.2743 76.7155C68.3211 77.024 68.3211 78.602 68.2369 78.7871C68.0591 79.2191 67.011 79.3425 67.1514 80.2064C67.3011 81.1673 69.6593 81.0174 70.3424 81.5463C70.6606 81.7931 70.7354 82.3044 70.8384 82.7628C70.9039 83.0097 70.6793 83.089 70.567 83.1331C70.4641 83.1948 70.3611 83.2036 70.2676 83.2036C70.2301 83.2036 70.1927 83.2036 70.1553 83.1948C70.0617 83.1948 69.9587 83.186 69.8277 83.1948C69.051 83.3182 67.8439 83.6267 67.5257 84.2614C67.1327 84.9931 67.638 86.0509 67.4976 86.9148C67.3479 87.6818 66.8145 88.6162 66.4215 89.2333C66.1875 89.6035 65.8787 89.9649 65.7758 90.5115C65.5325 91.6575 65.7571 93.0327 65.7103 94.399L65.6916 94.4167C65.6916 94.4167 65.7477 95.1219 65.3172 95.6156C64.8213 96.1797 63.0807 97.8458 61.8268 97.7841C61.3589 97.7489 61.1624 97.5726 60.6477 97.1494C60.3295 97.1142 59.5902 96.885 59.1504 96.3913C59.0101 96.1357 57.5877 94.5754 58.4579 94.1963C58.6077 94.1346 58.7668 94.1082 58.9352 94.117C59.7213 94.1522 60.7225 94.8574 61.2372 95.2277C61.2559 95.2277 61.2747 95.2277 61.3121 95.2277C61.7332 95.2453 63.4176 95.2453 65.1394 92.8652C65.0178 91.4724 64.8681 89.7005 64.7183 89.3655C64.5125 88.6867 63.3989 87.4173 63.1462 86.7033C62.9871 86.1127 62.7064 84.9579 62.8561 84.1733C62.7532 83.2829 62.2292 83.0537 61.9952 82.3397C61.9297 82.1546 61.8548 82.0135 61.8174 81.9518C61.7426 81.6874 61.6958 81.4582 61.5367 81.2113C61.1998 80.656 60.8629 80.5237 60.5541 79.9948C60.2172 79.4394 60.264 78.7607 59.768 78.3816C59.4967 78.1789 59.1317 78.1348 58.8323 77.9409C58.6077 77.7998 58.3269 77.4472 58.0743 77.315C57.7748 77.1651 57.6812 77.1122 57.4005 76.9712C57.2508 76.883 56.9794 76.742 56.8484 76.6714C56.708 76.5833 56.5864 76.6538 56.4647 76.548C56.0998 76.2042 56.3618 75.9398 56.1559 75.358C56.1372 75.2963 55.9968 75.2786 55.9688 75.1552C55.8471 75.1111 55.6599 74.9525 55.4915 74.9436C55.4447 74.9436 55.3886 74.9436 55.3511 74.9877C55.0798 75.1905 54.9955 75.1288 54.8365 75.5695C54.7335 75.8604 54.5744 76.7243 54.3873 76.9271C54.2188 77.1298 54.013 77.4207 53.7509 77.6059C53.5544 77.7028 53.3766 77.7028 53.3111 77.7028C53.2924 77.7028 53.2924 77.7028 53.2924 77.7028L52.5999 77.7734L52.2724 78.3199C52.2724 78.3199 51.8887 78.2494 51.6922 78.2406C51.6361 78.3816 51.1869 78.7254 51.0465 78.8577C50.8219 78.9811 50.6348 79.0251 50.4851 79.0163C50.2324 79.0075 50.0827 78.8665 50.0546 78.7871C50.0265 78.6637 49.83 78.408 50.223 78.17C51.5799 77.835 53.2082 75.9927 53.3298 75.5695C53.1614 75.8428 50.3728 77.359 49.8581 77.553C50.3915 76.169 53.7977 74.2825 54.0036 74.0533C53.124 74.1503 50.2137 75.8869 49.7177 76.6891C49.4276 77.2004 49.0907 77.2885 48.7445 77.2709C48.5386 77.2621 48.3234 77.2092 48.1175 77.1915C48.1175 77.1915 48.1082 77.1915 48.0988 77.1915C47.5935 77.1651 47.6496 77.7645 47.6309 78.1171C47.6309 78.4786 47.3876 79.2014 47.6122 79.3337C47.6496 79.3777 47.7058 79.3954 47.7526 79.3954C47.9116 79.3954 48.1175 79.272 48.3327 79.1485C48.548 79.0163 48.7632 78.8841 48.941 78.8929C49.0533 78.8929 49.1562 78.9634 49.2217 79.1221C49.4089 79.9331 47.4531 79.8009 47.4812 80.4444C47.397 80.7882 49.306 80.9909 49.6522 81.3788C49.0533 81.8196 47.5654 81.8989 47.1162 81.8989C47.0227 81.8989 46.9291 81.8989 46.8449 81.8989C46.6858 81.8989 46.5454 81.8725 46.4425 81.8549C46.1898 81.802 45.8623 81.5463 45.5722 81.0438C45.0014 79.9772 45.8997 79.3072 45.9091 79.0428C45.9278 78.7695 45.8061 78.9105 45.7781 78.4698C45.75 78.0378 46.2179 77.9761 46.3302 77.8968C46.4612 77.7998 46.2927 77.6764 46.3115 77.2533C46.536 76.31 47.9865 75.2786 47.5935 74.9524C47.556 74.9348 47.5186 74.9172 47.4812 74.9172C47.1162 74.8996 46.5173 75.5783 46.274 75.9133C45.6564 76.742 44.9639 76.8654 44.4305 76.8389C44.2808 76.8389 44.1498 76.8125 44.0281 76.7948C43.8878 76.7772 43.7755 76.7596 43.7006 76.7508C43.6819 76.7508 43.6632 76.7508 43.6445 76.7508C43.2421 76.7331 43.0736 76.4951 43.0643 76.2659C43.0549 76.0367 43.2234 75.8164 43.5041 75.8252C43.5228 75.8252 43.5509 75.8252 43.5696 75.8252C44.2527 75.7106 44.2153 74.7409 44.6645 74.7585C44.6832 74.7585 44.7113 74.7585 44.7393 74.7673C44.9171 75.5431 44.1124 75.6136 44.496 75.7987C44.5615 75.834 44.627 75.8428 44.6738 75.8516C45.0294 75.8693 45.0669 75.2962 45.1979 75.0406C45.3476 74.7409 46.0588 74.1238 45.9746 73.9563C45.9559 73.9563 45.9371 73.9475 45.9091 73.9475C45.6658 73.9387 45.2072 74.2649 44.9826 74.4323C44.365 72.8456 45.8155 71.7349 45.881 71.2853C46.3582 70.4919 49.0533 69.5839 49.072 68.3498L49.1375 68.2793C49.1375 68.2793 49.1375 68.2793 49.1469 68.2793C49.1656 68.2793 49.2124 68.2969 49.2685 68.4027C49.2872 68.482 49.2966 68.5613 49.3247 68.6495C49.3247 68.7465 49.3247 68.8346 49.3247 68.8346V68.72C49.3621 68.8963 49.3621 69.0462 49.3621 69.0462V69.2313C49.3995 69.3371 49.5306 69.4076 49.5586 69.4253C49.6241 69.4164 49.7645 69.3724 49.9049 69.2049L50.0827 68.9933C50.3447 68.7994 50.3821 68.7817 50.5599 68.5085C51.0184 67.812 50.0827 66.7189 50.3073 65.7493C50.4663 65.1145 51.0278 64.3741 51.0278 64.3741C51.1682 64.0215 50.9249 64.0038 50.9249 64.0038C50.8968 64.0038 50.8687 63.995 50.85 63.995C50.7003 63.995 50.5693 64.0567 50.4851 64.1272C50.4008 64.1978 50.3634 64.2683 50.3634 64.2683C49.9142 64.7002 49.7832 64.9206 49.4557 65.5112C49.4557 65.5112 49.3621 65.5994 49.2685 65.5994C49.203 65.5994 49.1375 65.5465 49.1001 65.3966C48.9223 64.7796 49.5399 63.6159 49.7458 63.4661C50.1201 63.2016 50.5038 63.1135 50.9904 62.9284C51.2337 62.8314 51.5799 62.4347 51.8139 62.3818C51.8794 62.3554 51.9449 62.3466 52.0197 62.3466C52.0759 62.3466 52.132 62.3642 52.1882 62.3994C52.1882 62.3994 52.3753 62.5405 52.3005 62.9989C52.3005 62.9989 52.1227 63.519 52.1975 63.7217C52.2443 63.854 52.2256 63.9862 52.5063 63.995C52.5344 63.995 52.5625 63.995 52.5999 63.995C53.3018 64.0303 54.6867 63.9333 55.0985 63.7217C55.2014 63.6777 55.295 63.5278 55.3792 63.4485C55.5196 63.3074 55.4728 63.087 55.3792 63.0518L55.0891 62.946C55.3137 62.9284 53.8258 62.8402 54.0691 62.8049H54.0504C53.8445 62.7961 54.406 62.0821 54.3218 61.7207C54.2843 61.5444 53.9942 61.465 53.9381 61.3151C53.91 61.227 53.7509 61.086 53.9381 61.0154L54.1533 60.9273C54.2188 60.8656 54.3031 60.7862 54.3966 60.7422C54.5932 60.654 54.8552 60.6276 55.1266 60.6452C55.4915 60.6628 55.8565 60.7422 56.0717 60.8215C56.1185 60.8479 56.7174 61.0507 56.9326 61.6501C56.9888 61.8176 57.0356 62.0116 57.1291 62.1526C57.2976 62.3906 57.6251 62.5493 57.962 62.5669C58.2334 62.5846 58.5047 62.5052 58.72 62.3025C58.8135 62.2143 58.9258 61.9939 59.0007 61.8617C59.4405 60.7245 58.72 59.8959 57.8122 59.5256C57.4567 59.3758 56.8671 59.3053 56.4179 59.1554C56.0904 59.0408 56.2776 58.7675 56.3618 58.6882L56.5022 58.5736C56.6706 58.3091 57.2227 58.0888 57.4192 58.0271C57.728 57.9213 58.0275 57.8067 58.3924 57.8243C58.6077 57.8331 58.8323 57.886 59.0943 58.0094C59.1972 58.0535 59.4779 58.2915 59.5622 58.3268C59.8148 58.4061 59.9926 58.4502 60.1611 58.459C60.3482 58.4678 60.526 58.4237 60.788 58.2915C60.9752 58.1945 60.9471 58.1769 60.9658 58.1152C61.1156 57.6392 60.8255 57.2866 60.788 57.2777C60.7506 57.0574 60.9097 56.9956 61.1624 57.0133C61.3495 57.0221 61.5835 57.075 61.8268 57.1191C62.0607 57.1632 62.2947 57.2072 62.4818 57.216C62.669 57.2248 62.8281 57.1984 62.8936 57.1014C63.1649 56.7136 62.9684 55.929 63.3334 55.6557L63.6141 55.4706C63.6796 55.4618 63.7451 55.453 63.8106 55.4618C64.082 55.4794 64.3347 55.6028 64.5593 55.7174L64.8681 55.8849C65.4763 56.1846 66.0004 56.3521 66.3373 56.8899C66.5525 57.2425 66.5244 57.745 66.7396 58.0976C66.8332 58.2474 67.0297 58.3532 67.1327 58.5119C67.2169 58.6265 67.3853 58.7058 67.507 58.7852C67.6848 58.8998 67.7503 58.9527 67.9749 59.0408C68.1433 59.1113 68.3866 59.3934 68.5364 59.464C68.9481 59.6579 69.3973 59.7108 69.8558 59.7372C70.043 59.746 70.2301 59.746 70.4079 59.7548C70.5483 59.7548 70.6793 59.7989 70.801 59.843C70.9132 59.8783 71.0162 59.9223 71.1378 59.9223C71.2033 59.9223 71.2595 59.9223 71.3343 59.8959C71.5215 59.843 71.456 59.508 71.3343 59.3581C71.1098 59.0496 70.9413 59.1113 70.567 58.8733C70.4266 58.7675 70.2301 58.459 70.0804 58.362C69.6499 58.0535 69.0323 57.9742 68.7609 57.4981C68.7329 57.4276 68.6767 57.2865 68.6674 57.2072L68.5644 56.9868C68.0217 55.8585 67.8345 55.1973 68.3305 55.0122C68.6299 54.9064 69.3131 55.0122 69.6406 54.88C69.7154 54.8447 69.8464 54.6331 69.912 54.5979C70.4266 54.3599 71.2688 54.113 71.9988 54.1483C72.2982 54.1659 72.5696 54.2276 72.7942 54.3599C73.0281 54.4833 72.8129 55.1004 72.9065 55.3384C72.9533 55.453 73.1311 55.6381 73.3276 55.7174C74.9371 56.2552 76.528 56.264 77.7258 56.8987C78.437 57.2778 78.9797 57.8596 79.6254 58.4678C80.1775 58.9967 79.5505 59.5433 80.112 59.746C79.9436 59.7637 79.7845 59.7813 79.6535 59.7725C79.4944 59.7725 79.3727 59.7196 79.3353 59.605L79.1388 59.3053C78.7177 58.8645 78.2124 58.1857 77.6228 57.9477C77.4544 57.886 77.3514 57.8772 77.2298 57.8772C77.1269 57.8772 77.0146 57.8684 76.8742 57.8155L76.4905 57.6744C76.0881 57.5246 76.0601 57.5775 75.6577 57.4717C75.4799 57.4276 75.0775 57.1719 74.8903 57.1543C74.7593 57.1279 74.6377 57.1103 74.5254 57.1103C74.3195 57.1014 74.1323 57.1103 73.9545 57.1367C73.7861 57.1455 73.6177 57.1631 73.4399 57.1543C73.2901 57.1543 73.1217 57.1191 72.9439 57.0574C72.607 56.9339 72.1672 56.3521 71.8865 56.1847C71.5496 55.9643 71.2408 55.8849 70.8571 55.7439C70.7916 55.7174 70.7354 55.6998 70.6793 55.6998C70.6231 55.6998 70.5764 55.7086 70.5202 55.7439C70.3143 55.8585 70.3892 56.0524 70.4921 56.2199C70.5576 56.3081 70.6138 56.4579 70.6887 56.5108C70.96 56.7224 71.4841 56.7488 71.6338 57.0574C72.0643 57.9389 71.4747 58.2034 71.3905 58.459C71.3531 58.6089 71.2408 58.7234 71.3999 58.9438C71.4934 59.0496 71.6806 59.1995 71.7835 59.2436C72.1766 59.4375 72.4666 59.3758 72.8222 59.5962C73.0749 59.746 73.3556 60.2397 73.6832 60.3278C73.7767 60.3543 73.861 60.3631 73.9358 60.3719C74.4692 60.3984 74.6377 59.9576 74.9652 59.8871C75.0588 59.8694 75.1524 59.8695 75.2366 59.8695C75.3769 59.8695 75.5079 59.9047 75.639 59.9312C75.77 59.9576 75.9103 59.9929 76.0601 60.0017C76.1817 60.0017 76.3127 60.0017 76.4624 59.9576C76.659 59.9135 76.7713 59.6579 76.9116 59.5962C77.1269 59.4904 77.3421 59.4375 77.5199 59.4463C77.6415 59.4463 77.7538 59.4816 77.8381 59.5345C77.8381 59.5345 78.0814 59.6667 77.7538 59.8254C77.5573 59.9223 77.3982 59.9223 77.2017 60.0193C77.0707 60.0898 76.9491 60.2838 76.9303 60.3102C76.8648 60.4513 76.8274 60.6452 76.8368 60.6628C76.8929 60.7862 76.9771 60.8391 77.0239 60.8744C77.1549 60.9273 77.2953 60.9537 77.4263 60.9625C77.941 60.989 78.4463 60.7157 78.8861 60.6628C78.9891 60.654 79.1294 60.6452 79.2885 60.6628C79.8032 60.6893 80.5331 60.8127 80.7951 61.0331C80.7951 61.0331 81.1039 61.1212 80.9168 61.703C80.7951 62.0468 80.2711 62.276 80.0933 62.5758C79.9716 62.7433 79.8593 63.0518 79.7377 63.2193C79.5412 63.4749 79.5131 63.4573 79.326 63.7041L79.1949 63.9069C79.1201 64.1537 78.1937 64.9559 78.0252 65.238C77.9223 65.3967 77.8661 65.5729 77.7725 65.7493C77.6041 65.9961 77.4825 66.0225 77.3982 66.1812C77.1362 66.5867 76.6122 67.3977 76.1817 67.5917C76.1256 67.6181 76.0601 67.6181 75.9946 67.6181C75.8261 67.6181 75.6296 67.5388 75.4331 67.4859C75.2459 67.433 75.0401 67.0539 74.8716 66.9746C74.2072 66.6308 73.4867 66.6749 72.9065 66.287C72.6164 66.0931 72.345 65.5465 72.1298 65.2556C71.9894 65.0705 71.8584 64.7267 71.6525 64.6385C71.5589 64.6033 71.4279 64.5768 71.2876 64.568C70.9132 64.5504 70.4641 64.6473 70.3518 64.8677C70.0617 65.476 70.8945 67.1156 70.9788 67.7591C71.0443 68.3233 70.8103 68.5525 71.0068 69.0286C71.1098 69.2754 71.456 69.3547 71.5777 69.5487C72.1017 70.4126 71.6899 71.585 71.8397 72.7046C71.8865 73.0572 72.0923 73.4979 72.0455 74.0004C71.9894 74.785 71.0443 75.4109 71.456 76.6186L71.6712 76.8301C71.7367 76.8654 71.8116 76.883 71.9052 76.8918C72.0175 76.8918 72.1298 76.883 72.214 76.8566C72.5134 76.7508 72.8035 76.1161 73.1217 75.9221L73.3182 75.834L73.4867 75.7458C73.6177 75.64 73.6738 75.6489 73.7487 75.4637C73.8703 75.1552 73.8235 74.829 73.9171 74.3883C73.992 74.018 74.3101 73.3657 74.3476 72.9338C74.4318 71.7349 73.5522 69.3283 74.1417 68.9757C74.3663 68.8258 74.5815 68.5525 74.9746 68.5173C74.9839 68.5173 75.0026 68.5173 75.0213 68.5173C75.1243 68.5173 75.3021 68.5613 75.4705 68.6142C75.6296 68.6495 75.8074 68.6936 75.9197 68.7024C75.9291 68.7024 75.9384 68.7024 75.9478 68.7024C75.667 69.4517 76.8274 71.4792 76.7713 72.5547C76.6122 75.1905 75.0213 76.5745 73.6364 77.9144C73.4679 78.0819 73.6177 78.2758 73.7393 78.4081C73.8797 78.5491 74.1136 78.602 74.3476 78.6196C74.6002 78.6284 74.8716 78.602 75.0494 78.5756C75.5641 78.4874 75.7793 78.2582 76.1536 78.1436C76.1911 78.1348 76.2191 78.126 76.2566 78.1348C76.3034 78.1348 76.3502 78.1524 76.4063 78.1612C76.4437 78.1612 76.4905 78.17 76.528 78.1789C76.556 78.1789 76.5841 78.1789 76.6215 78.1789C77.0052 78.0907 77.3234 77.5442 77.5292 77.2268C77.5292 77.2268 77.6883 77.0505 77.8381 77.0593C77.941 77.0593 78.0346 77.1475 78.0814 77.4208V77.4648C78.1001 78.1083 78.0159 78.7959 78.1375 79.4306C78.2685 80.1711 79.588 82.4631 80.2524 82.5865C80.3366 82.6041 80.4115 82.613 80.4863 82.6218C81.628 82.6747 80.1775 80.7618 80.112 80.6207C79.85 79.986 79.5693 78.8664 79.588 78.0378C79.588 77.7381 79.8126 77.1475 79.8406 76.8654C79.85 76.7243 79.7751 76.3982 79.8313 76.2836C79.9436 76.0279 80.7764 75.9838 80.9355 75.6489C80.9823 75.5607 80.9074 75.3756 80.9355 75.261C80.9729 75.023 81.1227 74.591 81.2911 74.3971C81.3472 74.3177 81.4221 74.2649 81.5157 74.2649C81.5906 74.2649 81.6654 74.3089 81.759 74.4235C81.9181 74.6175 81.9836 75.067 82.255 75.3932L82.4983 75.6753C82.5731 75.7282 82.6573 75.7546 82.7509 75.7546C82.8539 75.7546 82.9568 75.737 83.0223 75.7194C83.0878 75.7017 83.1346 75.6753 83.1065 75.6753C83.1065 75.6753 83.1065 75.6753 83.0972 75.6753C83.3779 75.6048 83.3405 75.2963 83.4621 75.1905L83.6399 75.1023C84.3043 74.4059 82.779 73.6742 82.7603 72.9866C82.7322 72.2285 82.8819 71.3734 82.6106 70.5272C82.5451 70.3156 82.1801 69.9982 82.1333 69.8131C82.0117 69.3371 82.2456 68.8434 82.2924 68.5437C82.3766 67.9178 82.152 66.9393 82.3392 66.6749C82.4234 66.5603 82.5544 66.4633 82.779 66.4809C82.8351 66.4809 82.9007 66.4898 82.9755 66.5162C83.2188 66.5779 83.3779 66.9922 83.5463 67.1333C84.0704 67.6005 84.6599 67.9002 85.446 67.9443C85.5957 67.9443 85.7454 67.9443 85.9045 67.9443C86.0262 67.9443 86.1291 67.7503 86.1478 67.6975C86.204 67.5035 86.1853 67.2479 86.0636 67.0716C85.6893 66.525 84.2575 66.0578 84.1733 65.8021C84.1078 65.6082 83.8832 65.3438 84.1265 65.2204C84.0891 65.238 84.1265 65.2468 84.2108 65.2556C84.4541 65.2644 85.0904 65.2203 85.3618 65.1763C85.839 65.0881 85.8577 64.5945 86.1759 64.4358C86.6344 64.1978 87.3269 64.4534 87.5702 64.0126C87.7199 63.7305 87.5889 63.2986 87.7293 63.0341C87.8977 62.6903 88.4499 62.6463 88.7306 62.3818C88.8055 62.3113 88.768 61.9939 88.7493 61.9058L88.7025 61.8882C88.5996 61.4033 87.3644 61.3857 86.8497 60.7069C86.6625 60.4424 86.7935 60.3102 86.8403 60.1163C86.962 59.5609 88.1036 59.9488 88.3656 59.464C88.4686 59.2524 88.4779 58.6353 88.4124 58.556C87.6732 57.5951 86.1946 57.9653 85.1278 57.4629C84.6131 57.216 83.9674 56.74 83.4341 56.502C82.7603 56.2023 82.2456 56.1406 81.5625 55.8232C81.4128 55.7439 81.1039 55.497 80.9449 55.4177C80.1869 55.0651 79.5973 54.9769 78.8393 54.6067C78.7551 54.5714 78.5212 54.4216 78.4276 54.3775C78.1188 54.2188 78.0252 54.2012 77.707 54.0602C76.6777 53.6194 75.4144 53.2139 73.9826 53.1434" fill="white"/>
<path d="M87.0376 24.862C86.8691 25.3204 85.8865 28.0708 85.793 28.3441L88.4132 28.4763C88.3664 28.3617 88.1792 27.868 87.9546 27.2686C87.5897 26.3342 87.1405 25.1617 87.0376 24.8708" fill="white"/>
<path d="M49.0516 22.2268C47.966 22.1739 47.0958 22.5177 46.4501 23.2493C45.8137 23.981 45.5049 24.9948 45.533 26.1496C45.5611 27.3044 45.9073 28.3358 46.5904 29.2349C47.311 30.187 48.2187 30.7071 49.2855 30.76C50.3429 30.8217 51.2039 30.4779 51.8402 29.7462C52.4578 29.0234 52.7573 28.089 52.7292 26.8901C52.7011 25.6912 52.3549 24.6333 51.7185 23.7518C51.0167 22.7998 50.1464 22.2885 49.0516 22.2356" fill="white"/>
<mask id="mask0_4284_15689" style="mask-type:luminance" maskUnits="userSpaceOnUse" x="0" y="0" width="121" height="133">
<path d="M120.945 117.927L118.633 19.0547C118.455 11.3237 112.625 4.77391 105.626 4.4213L16.3518 0.0136388C15.0979 -0.0480684 13.9001 0.101784 12.7678 0.419136C13.0392 0.339798 13.3105 0.269266 13.5913 0.216374L9.61419 1.00095C9.29602 1.06266 8.98721 1.14199 8.6784 1.23895C8.58482 1.2654 8.49125 1.30067 8.40702 1.32711C8.18244 1.39764 7.9672 1.47698 7.75197 1.55632C7.6584 1.59158 7.56482 1.62682 7.47124 1.6709C7.21858 1.77668 6.96591 1.89129 6.72261 2.01471C6.68518 2.03234 6.64775 2.04997 6.60096 2.07642C6.32022 2.22628 6.04884 2.38494 5.78682 2.55243C5.71196 2.5965 5.6371 2.64941 5.56224 2.7023C5.36572 2.83453 5.17856 2.96676 4.99141 3.11662C4.90719 3.17833 4.83232 3.24003 4.7481 3.30174C4.55159 3.46041 4.36443 3.6279 4.17727 3.79539C4.13049 3.83947 4.07434 3.88355 4.02755 3.93644C3.7936 4.15682 3.57837 4.38602 3.36314 4.62403C3.30699 4.68574 3.2602 4.74747 3.20406 4.80917C3.04497 4.9943 2.88589 5.18823 2.73616 5.38216C2.67066 5.4615 2.61451 5.54964 2.54901 5.63779C2.40864 5.84054 2.26827 6.0433 2.13726 6.25487C2.09047 6.3254 2.04368 6.39591 1.99689 6.46643C1.82845 6.74852 1.66937 7.03944 1.51029 7.33034C1.48221 7.39205 1.45414 7.45375 1.42607 7.51546C1.30441 7.76229 1.19212 8.00911 1.08918 8.25594C1.05175 8.35291 1.00496 8.45872 0.967531 8.55568C0.873952 8.7937 0.789731 9.02289 0.714868 9.26972C0.686795 9.36669 0.649363 9.45482 0.621289 9.55179C0.611931 9.59587 0.593217 9.63997 0.583859 9.68404C0.537069 9.85153 0.499639 10.0278 0.452849 10.1953C0.415418 10.354 0.368628 10.5039 0.331196 10.6625C0.284407 10.8829 0.246976 11.1121 0.209545 11.3413C0.181471 11.4912 0.153398 11.641 0.134682 11.7997C0.0972508 12.0554 0.0785352 12.311 0.0598195 12.5755C0.0504616 12.7077 0.031745 12.8399 0.0223872 12.9721C0.00367148 13.3688 -0.0056868 13.7743 0.00367106 14.1798L2.31506 113.052C2.49286 120.783 8.3228 127.333 15.3225 127.686L104.596 132.094C105.551 132.138 106.468 132.067 107.357 131.9L111.334 131.115C111.334 131.115 111.269 131.115 111.231 131.133C116.921 130.057 121.085 124.662 120.926 117.936L120.945 117.927ZM12.3748 0.533739C12.3748 0.533739 12.4309 0.51611 12.4496 0.507295C12.1502 0.604263 11.8601 0.701219 11.57 0.824633C11.6168 0.807002 11.6636 0.789374 11.7103 0.771743C11.9256 0.68359 12.1502 0.613059 12.3654 0.542536L12.3748 0.533739ZM10.6903 1.22133C10.8494 1.142 11.0179 1.06265 11.1863 0.992126C10.943 1.10673 10.6903 1.22132 10.4564 1.34473C10.4938 1.3271 10.5313 1.30067 10.5687 1.27422C10.6061 1.25659 10.6436 1.23896 10.6903 1.21251V1.22133ZM9.75455 1.75905C9.86685 1.68853 9.97914 1.62682 10.0914 1.56512C9.88556 1.68853 9.67969 1.81195 9.48318 1.95299C9.50189 1.94418 9.52061 1.92656 9.53932 1.90893C9.61419 1.85603 9.68905 1.80313 9.76391 1.75905H9.75455ZM8.72519 2.50836C8.80005 2.44665 8.88427 2.38496 8.95914 2.32325C9.00593 2.28799 9.06207 2.25273 9.10886 2.21747C8.92171 2.35851 8.73455 2.49956 8.55675 2.65823C8.6129 2.61416 8.66904 2.56126 8.72519 2.51719V2.50836ZM8.00464 3.14307C8.05143 3.09899 8.10757 3.05491 8.15436 3.00202C8.17308 2.98439 8.20115 2.96676 8.21987 2.94913C8.04207 3.11662 7.86427 3.2841 7.69583 3.4604C7.79876 3.35462 7.9017 3.24003 8.00464 3.14307ZM7.34023 3.83066C7.34023 3.83066 7.37766 3.78658 7.40573 3.76895C7.21858 3.98051 7.04078 4.20092 6.86298 4.4213C6.96591 4.28907 7.07821 4.148 7.1905 4.01577C7.24665 3.95407 7.29344 3.89237 7.34959 3.83066H7.34023ZM6.5261 4.84442C6.5261 4.84442 6.57288 4.7827 6.5916 4.75626C6.39509 5.02072 6.20793 5.29401 6.03949 5.5761C6.06756 5.54084 6.08628 5.50558 6.11435 5.4615C6.24536 5.24993 6.38573 5.04717 6.5261 4.84442ZM5.87105 5.867C5.71196 6.14027 5.56224 6.41355 5.42187 6.69564C5.44058 6.64275 5.46866 6.59866 5.48737 6.54577C5.60903 6.31657 5.73068 6.08738 5.86169 5.867H5.87105ZM5.07563 7.47139C5.13177 7.33916 5.18792 7.21575 5.24407 7.09234C5.13177 7.33035 5.02884 7.57717 4.93526 7.824C4.93526 7.80637 4.94462 7.78874 4.95398 7.77111C4.99141 7.67414 5.02884 7.56836 5.07563 7.47139ZM4.70131 8.48515C4.72003 8.41462 4.7481 8.34411 4.77618 8.27359C4.69196 8.5116 4.61709 8.75842 4.54223 9.00525C4.56095 8.92591 4.57966 8.83776 4.60773 8.75842C4.63581 8.66145 4.67324 8.57329 4.70131 8.47632V8.48515ZM4.41122 9.52535C4.35507 9.77218 4.29893 10.019 4.25214 10.2658C4.27085 10.1336 4.29893 10.0014 4.31764 9.87798C4.34572 9.76338 4.37379 9.64877 4.40186 9.53417L4.41122 9.52535ZM4.16792 10.786C4.13048 11.0592 4.09305 11.3413 4.07434 11.6234C4.09305 11.4206 4.10241 11.2091 4.13048 11.0063C4.13984 10.927 4.15856 10.8565 4.16792 10.786ZM4.01819 12.1876C4.01819 12.1876 4.01819 12.1171 4.02755 12.073C3.99948 12.5049 3.99012 12.9457 3.99947 13.3953C3.99012 12.9898 3.99948 12.5843 4.01819 12.1876Z" fill="white"/>
</mask>
<g mask="url(#mask0_4284_15689)">
<g style="mix-blend-mode:darken" opacity="0.7">
<path d="M199.585 169.683L197.274 70.81C197.096 63.079 191.266 56.5292 184.266 56.1766L94.9925 51.7689C93.7385 51.7072 92.5407 51.8571 91.4084 52.1744C91.6798 52.0951 91.9512 52.0246 92.2319 51.9717L88.2548 52.7563C87.9366 52.818 87.6278 52.8973 87.319 52.9943C87.2255 53.0207 87.1319 53.056 87.0477 53.0824C86.8231 53.1529 86.6078 53.2323 86.3926 53.3116C86.299 53.3469 86.2054 53.3822 86.1119 53.4262C85.8592 53.532 85.6065 53.6466 85.3632 53.77C85.3258 53.7876 85.2884 53.8053 85.2416 53.8317C84.9608 53.9816 84.6895 54.1403 84.4274 54.3078C84.3526 54.3518 84.2777 54.4047 84.2029 54.4576C84.0063 54.5898 83.8192 54.7221 83.632 54.8719C83.5478 54.9336 83.473 54.9954 83.3887 55.0571C83.1922 55.2157 83.0051 55.3832 82.8179 55.5507C82.7711 55.5948 82.715 55.6389 82.6682 55.6917C82.4342 55.9121 82.219 56.1414 82.0038 56.3794C81.9476 56.4411 81.9008 56.5028 81.8447 56.5645C81.6856 56.7496 81.5265 56.9435 81.3768 57.1375C81.3113 57.2168 81.2551 57.305 81.1896 57.3931C81.0493 57.5959 80.9089 57.7986 80.7779 58.0102C80.7311 58.0807 80.6843 58.1512 80.6375 58.2218C80.4691 58.5039 80.31 58.7947 80.1509 59.0857C80.1228 59.1474 80.0948 59.2091 80.0667 59.2708C79.945 59.5176 79.8327 59.7644 79.7298 60.0113C79.6924 60.1082 79.6456 60.214 79.6082 60.311C79.5146 60.549 79.4304 60.7782 79.3555 61.025C79.3274 61.122 79.29 61.2102 79.2619 61.3071C79.2526 61.3512 79.2338 61.3953 79.2245 61.4394C79.1777 61.6068 79.1403 61.7831 79.0935 61.9506C79.056 62.1093 79.0093 62.2592 78.9718 62.4178C78.925 62.6382 78.8876 62.8674 78.8502 63.0966C78.8221 63.2465 78.794 63.3963 78.7753 63.555C78.7379 63.8107 78.7192 64.0663 78.7004 64.3308C78.6911 64.463 78.6724 64.5952 78.663 64.7275C78.6443 65.1241 78.6349 65.5297 78.6443 65.9352L80.9557 164.808C81.1335 172.539 86.9634 179.089 93.9631 179.441L183.237 183.849C184.192 183.893 185.109 183.822 185.998 183.655L189.975 182.87C189.975 182.87 189.909 182.87 189.872 182.888C195.561 181.813 199.726 176.418 199.566 169.691L199.585 169.683Z" fill="#1C1C1C"/>
</g>
</g>
<defs>
<linearGradient id="paint0_linear_4284_15689" x1="118.967" y1="130.789" x2="9.21093" y2="-11.7821" gradientUnits="userSpaceOnUse">
<stop offset="0.18" stop-color="#A1001F"/>
<stop offset="0.36" stop-color="#92001A"/>
<stop offset="0.69" stop-color="#6D000D"/>
<stop offset="1" stop-color="#440000"/>
</linearGradient>
</defs>
</svg>
