<svg width="78" height="78" viewBox="0 0 78 78" fill="none" xmlns="http://www.w3.org/2000/svg">
<rect width="78" height="78" rx="39" fill="#3D3D3D"/>
<path fill-rule="evenodd" clip-rule="evenodd" d="M44.8062 40.1692C45.2643 39.3035 45.4933 38.3414 45.4933 37.2829V22.4211C45.4933 20.7763 44.8612 19.3783 43.5969 18.227C42.3326 17.0757 40.7992 16.5 38.9967 16.5C37.1942 16.5 35.662 17.0757 34.4003 18.227C33.1385 19.3783 32.5076 20.7763 32.5076 22.4211V27.8707L26.1312 21.4943C25.4722 20.8352 24.4038 20.8352 23.7447 21.4943C23.0857 22.1533 23.0857 23.2217 23.7447 23.8807L55.2447 55.3807C55.9038 56.0398 56.9722 56.0398 57.6312 55.3807C58.2902 54.7217 58.2902 53.6533 57.6312 52.9943L52.5917 47.9547C55.0595 45.4099 56.4913 42.494 56.8871 39.207C57.0144 38.1495 56.137 37.2829 55.0719 37.2829C54.0068 37.2829 53.1616 38.1514 53.0034 39.2048C52.6545 41.5277 51.6536 43.5806 50.0004 45.3635L44.8062 40.1692ZM36.3648 31.7278L41.6362 36.9992V22.4211C41.6362 21.75 41.3836 21.1875 40.8784 20.7336C40.3732 20.2796 39.7473 20.0526 39.0005 20.0526C38.2537 20.0526 37.6277 20.2796 37.1226 20.7336C36.6174 21.1875 36.3648 21.75 36.3648 22.4211V31.7278Z" fill="#B5B5B5"/>
<path d="M32.5076 37.1438L38.9227 43.5588C37.1142 43.5419 35.5973 42.9318 34.3719 41.7286C33.1291 40.5082 32.5076 39.0263 32.5076 37.2829V37.1438Z" fill="#B5B5B5"/>
<path d="M47.1772 51.8133L44.449 49.0852C42.773 49.7038 40.9523 50.0132 38.9869 50.0132C35.0778 50.0132 31.7456 48.7895 28.9904 46.3421C26.7414 44.3444 25.4103 41.9653 24.9971 39.2048C24.8395 38.1514 23.9942 37.2829 22.9291 37.2829C21.8639 37.2829 20.9866 38.1495 21.1139 39.207C21.5213 42.5904 23.0263 45.5806 25.6291 48.1776C28.7148 51.2566 32.5291 53.0132 37.0719 53.4474V59.5714C37.0719 60.6365 37.9354 61.5 39.0005 61.5C40.0656 61.5 40.9291 60.6366 40.9291 59.5714V53.4474C43.1927 53.231 45.2754 52.6863 47.1772 51.8133Z" fill="#B5B5B5"/>
</svg>
