<svg width="142" height="142" viewBox="0 0 142 142" fill="none" xmlns="http://www.w3.org/2000/svg">
<g filter="url(#filter0_d_4211_62425)">
<rect x="32" y="32" width="78" height="78" rx="39" fill="#F9F9F9" shape-rendering="crispEdges"/>
<path d="M71 75.5592C69.1571 75.5592 67.6143 74.949 66.3714 73.7286C65.1286 72.5082 64.5071 71.0263 64.5071 69.2829V54.4211C64.5071 52.7763 65.138 51.3783 66.3998 50.227C67.6615 49.0757 69.1937 48.5 70.9962 48.5C72.7987 48.5 74.3321 49.0757 75.5964 50.227C76.8607 51.3783 77.4929 52.7763 77.4929 54.4211V69.2829C77.4929 71.0263 76.8714 72.5082 75.6286 73.7286C74.3857 74.949 72.8429 75.5592 71 75.5592ZM71 93.5C69.9349 93.5 69.0714 92.6365 69.0714 91.5714V85.4474C64.5286 85.0132 60.7143 83.2566 57.6286 80.1776C55.0258 77.5806 53.5208 74.5904 53.1134 71.207C52.9861 70.1495 53.8635 69.2829 54.9286 69.2829V69.2829C55.9937 69.2829 56.839 70.1514 56.9966 71.2048C57.4098 73.9653 58.7409 76.3444 60.9899 78.3421C63.7451 80.7895 67.0773 82.0132 70.9864 82.0132C74.8955 82.0132 78.2321 80.7895 80.9964 78.3421C83.2529 76.3444 84.5884 73.9653 85.0029 71.2048C85.1611 70.1514 86.0063 69.2829 87.0714 69.2829V69.2829C88.1365 69.2829 89.0139 70.1495 88.8866 71.207C88.4792 74.5904 86.9742 77.5806 84.3714 80.1776C81.2857 83.2566 77.4714 85.0132 72.9286 85.4474V91.5714C72.9286 92.6365 72.0651 93.5 71 93.5V93.5Z" fill="#ED5000"/>
</g>
<defs>
<filter id="filter0_d_4211_62425" x="0" y="0" width="142" height="142" filterUnits="userSpaceOnUse" color-interpolation-filters="sRGB">
<feFlood flood-opacity="0" result="BackgroundImageFix"/>
<feColorMatrix in="SourceAlpha" type="matrix" values="0 0 0 0 0 0 0 0 0 0 0 0 0 0 0 0 0 0 127 0" result="hardAlpha"/>
<feOffset/>
<feGaussianBlur stdDeviation="16"/>
<feComposite in2="hardAlpha" operator="out"/>
<feColorMatrix type="matrix" values="0 0 0 0 0 0 0 0 0 0 0 0 0 0 0 0 0 0 0.8 0"/>
<feBlend mode="normal" in2="BackgroundImageFix" result="effect1_dropShadow_4211_62425"/>
<feBlend mode="normal" in="SourceGraphic" in2="effect1_dropShadow_4211_62425" result="shape"/>
</filter>
</defs>
</svg>
