<svg width="78" height="78" viewBox="0 0 78 78" fill="none" xmlns="http://www.w3.org/2000/svg">
<rect width="78" height="78" rx="39" fill="#F9F9F9"/>
<path d="M39 43.5592C37.1571 43.5592 35.6143 42.949 34.3714 41.7286C33.1286 40.5082 32.5071 39.0263 32.5071 37.2829V22.4211C32.5071 20.7763 33.138 19.3783 34.3998 18.227C35.6615 17.0757 37.1937 16.5 38.9962 16.5C40.7987 16.5 42.3321 17.0757 43.5964 18.227C44.8607 19.3783 45.4929 20.7763 45.4929 22.4211V37.2829C45.4929 39.0263 44.8714 40.5082 43.6286 41.7286C42.3857 42.949 40.8429 43.5592 39 43.5592ZM39 61.5C37.9349 61.5 37.0714 60.6365 37.0714 59.5714V53.4474C32.5286 53.0132 28.7143 51.2566 25.6286 48.1776C23.0258 45.5806 21.5208 42.5904 21.1134 39.207C20.9861 38.1495 21.8635 37.2829 22.9286 37.2829V37.2829C23.9937 37.2829 24.839 38.1514 24.9966 39.2048C25.4098 41.9653 26.7409 44.3444 28.9899 46.3421C31.7451 48.7895 35.0773 50.0132 38.9864 50.0132C42.8955 50.0132 46.2321 48.7895 48.9964 46.3421C51.2529 44.3444 52.5884 41.9653 53.0029 39.2048C53.1611 38.1514 54.0063 37.2829 55.0714 37.2829V37.2829C56.1365 37.2829 57.0139 38.1495 56.8866 39.207C56.4792 42.5904 54.9742 45.5806 52.3714 48.1776C49.2857 51.2566 45.4714 53.0132 40.9286 53.4474V59.5714C40.9286 60.6365 40.0651 61.5 39 61.5V61.5Z" fill="#ED5000"/>
</svg>
