<svg width="110" height="20" viewBox="0 0 110 20" fill="none" xmlns="http://www.w3.org/2000/svg">
<path d="M99.359 -0.000244141H36.0703C30.5475 -0.000244141 26.0703 4.47691 26.0703 9.99975C26.0703 15.5226 30.5475 19.9998 36.0703 19.9998H99.359C104.882 19.9998 109.359 15.5226 109.359 9.99975C109.359 4.47691 104.882 -0.000244141 99.359 -0.000244141Z" fill="url(#paint0_linear_4284_15698)"/>
<path d="M39.1241 11.4775V15.404H36.6914V4.48767H40.8027C43.0201 4.48767 44.5438 5.95022 44.5438 7.98294C44.5438 10.0157 43.0194 11.4782 40.8027 11.4782H39.1241V11.4775ZM40.5561 9.38367C41.4798 9.38367 42.111 8.84476 42.111 7.99822C42.111 7.15167 41.4798 6.59676 40.5561 6.59676H39.1394V9.38367H40.5561Z" fill="white"/>
<path d="M50.7522 10.0615C50.4904 9.99971 50.2438 9.98444 50.0133 9.98444C49.0744 9.98444 48.2271 10.5386 48.2271 12.063V15.4041H45.8867V7.75171H48.15V8.78298C48.55 7.92044 49.5202 7.67462 50.1362 7.67462C50.3667 7.67462 50.598 7.70517 50.7522 7.75171V10.0615Z" fill="white"/>
<path d="M59.0642 13.2018C58.6948 14.5262 57.4781 15.6346 55.5384 15.6346C53.4293 15.6346 51.5508 14.1255 51.5508 11.5546C51.5508 8.98366 53.3828 7.52039 55.369 7.52039C57.7399 7.52039 59.2031 8.98293 59.2031 11.4469C59.2031 11.7698 59.1726 12.124 59.1573 12.1706H53.8301C53.8759 13.0331 54.6613 13.6484 55.5697 13.6484C56.4162 13.6484 56.8941 13.2484 57.1093 12.6477L59.065 13.2018H59.0642ZM56.9399 10.6615C56.9093 10.076 56.5086 9.36839 55.4002 9.36839C54.4148 9.36839 53.9224 10.092 53.8759 10.6615H56.9399Z" fill="white"/>
<path d="M60.7593 15.4041V7.75172H62.992V8.62954C63.3767 7.95245 64.3622 7.52118 65.1934 7.52118C66.2865 7.52118 67.072 7.96772 67.4567 8.72191C68.0574 7.85936 68.7964 7.52118 69.8276 7.52118C71.2749 7.52118 72.6604 8.36772 72.6604 10.4463V15.4041H70.3971V10.9699C70.3971 10.2463 70.0124 9.67682 69.1804 9.67682C68.3484 9.67682 67.9025 10.3081 67.9025 10.9852V15.4041H65.5927V10.9699C65.5927 10.2463 65.208 9.67682 64.3607 9.67682C63.5134 9.67682 63.0982 10.3081 63.0982 11.0012V15.4048H60.7578L60.7593 15.4041Z" fill="white"/>
<path d="M75.726 4.04114C76.4962 4.04114 77.1115 4.65714 77.1115 5.41132C77.1115 6.1655 76.4955 6.7815 75.726 6.7815C74.9565 6.7815 74.3711 6.1655 74.3711 5.41132C74.3711 4.65714 74.9871 4.04114 75.726 4.04114ZM74.5711 15.404V7.75168H76.9115V15.404H74.5711Z" fill="white"/>
<path d="M83.7664 14.6338C83.3664 15.2956 82.4886 15.5727 81.7184 15.5727C79.8551 15.5727 78.8086 14.2178 78.8086 12.5858V7.75092H81.149V12.0927C81.149 12.8316 81.549 13.4171 82.381 13.4171C83.1664 13.4171 83.6588 12.8782 83.6588 12.108V7.75092H85.9991V14.0331C85.9991 14.7262 86.061 15.2804 86.0762 15.4033H83.8282C83.7977 15.2651 83.7664 14.8338 83.7664 14.6331V14.6338Z" fill="white"/>
<path d="M87.9819 15.404V7.75166H90.2147V8.62948C90.5994 7.95239 91.5848 7.52112 92.4161 7.52112C93.5092 7.52112 94.2947 7.96766 94.6794 8.72185C95.2801 7.8593 96.019 7.52112 97.0503 7.52112C98.4976 7.52112 99.883 8.36766 99.883 10.4462V15.404H97.6197V10.9698C97.6197 10.2462 97.235 9.67675 96.403 9.67675C95.571 9.67675 95.1252 10.308 95.1252 10.9851V15.404H92.8154V10.9698C92.8154 10.2462 92.4307 9.67675 91.5834 9.67675C90.7361 9.67675 90.3208 10.308 90.3208 11.0011V15.4048H87.9805L87.9819 15.404Z" fill="white"/>
<path d="M15.7824 16.5707C15.7824 14.6769 17.3177 13.1416 19.2115 13.1416C20.1955 13.1416 21.0814 13.5562 21.7068 14.2202C22.3046 12.938 22.6406 11.5089 22.6406 10.0005C22.6406 4.47691 18.1635 -0.000183105 12.6406 -0.000183105C7.11772 -0.000183105 2.64062 4.47691 2.64062 9.99981C2.64062 15.5227 7.11772 19.9998 12.6406 19.9998C14.149 19.9998 15.5781 19.6638 16.8603 19.066C16.197 18.4405 15.7817 17.5547 15.7817 16.5707H15.7824ZM12.6406 13.7809C10.5504 13.7809 8.85808 12.0915 8.85808 9.99981C8.85808 7.90818 10.5512 6.21872 12.6406 6.21872C14.7301 6.21872 16.4195 7.91254 16.4195 9.99981C16.4195 12.0871 14.7264 13.7809 12.6406 13.7809Z" fill="white"/>
<path d="M19.2103 19.9998C21.1042 19.9998 22.6394 18.4645 22.6394 16.5707C22.6394 14.6769 21.1042 13.1416 19.2103 13.1416C17.3165 13.1416 15.7812 14.6769 15.7812 16.5707C15.7812 18.4645 17.3165 19.9998 19.2103 19.9998Z" fill="url(#paint1_linear_4284_15698)"/>
<defs>
<linearGradient id="paint0_linear_4284_15698" x1="30.5067" y1="-4.86715" x2="103.493" y2="24.295" gradientUnits="userSpaceOnUse">
<stop stop-color="#FF6800"/>
<stop offset="1" stop-color="#FF3200"/>
</linearGradient>
<linearGradient id="paint1_linear_4284_15698" x1="15.7907" y1="13.1511" x2="22.6183" y2="19.9787" gradientUnits="userSpaceOnUse">
<stop stop-color="#FF6800"/>
<stop offset="1" stop-color="#FF3200"/>
</linearGradient>
</defs>
</svg>
