<svg width="126" height="161" viewBox="0 0 126 161" fill="none" xmlns="http://www.w3.org/2000/svg">
<path d="M117.305 21H24.695C20.42 21 17 24.465 17 28.74V152.76C17 157.035 20.465 160.5 24.695 160.5H86.39L125 121.755V28.785C125 24.51 121.535 21.045 117.305 21.045V21Z" fill="#E5E5E5"/>
<path d="M94.1286 121.758C89.8536 121.758 86.4336 125.223 86.4336 129.498V160.503L125.044 121.758H94.1736H94.1286Z" fill="#CCCCCC"/>
<rect x="31" y="47.75" width="42" height="12" rx="2" fill="#CCCCCC"/>
<rect x="31" y="67.75" width="80" height="12" rx="2" fill="#CCCCCC"/>
<rect x="31" y="87.75" width="64" height="12" rx="2" fill="#CCCCCC"/>
<rect x="31" y="107.75" width="44" height="12" rx="2" fill="#CCCCCC"/>
<path d="M36.6099 46.9187L23.9777 32.8004C22.5944 31.2543 23.6917 28.8 25.7662 28.8H38.3984C39.7239 28.8 40.7984 29.8746 40.7984 31.2V45.3184C40.7984 47.5214 38.0788 48.5605 36.6099 46.9187Z" fill="#E15100"/>
<rect width="90.9459" height="34.973" rx="17.4865" fill="#E15100"/>
<path d="M21.27 14.5596C21.1911 13.6389 20.5071 13.0864 19.2882 13.0864C18.078 13.0864 17.4554 13.6126 17.4467 14.3316C17.4291 15.1209 18.2008 15.5067 19.3408 15.7522L20.4457 16.0153C22.8923 16.5502 24.3129 17.7691 24.3216 19.8036C24.3129 22.2063 22.445 23.6532 19.2882 23.662C16.1225 23.6532 14.0793 22.2326 14.0267 19.3125H16.903C16.9731 20.5402 17.8939 21.1715 19.2531 21.1715C20.5158 21.1715 21.27 20.6191 21.2875 19.8036C21.27 19.067 20.6211 18.6811 19.218 18.3654L17.8851 18.0497C15.7016 17.5411 14.3599 16.4538 14.3599 14.5421C14.3512 12.1832 16.4295 10.6136 19.3057 10.6136C22.2346 10.6136 24.1199 12.2095 24.1462 14.5596H21.27ZM25.409 20.8383C25.4002 18.725 27.04 17.9708 28.9342 17.8568C29.6269 17.813 30.8107 17.7691 31.2141 17.7516V16.9799C31.2141 16.3135 30.7231 15.9364 29.9163 15.9452C29.1359 15.9364 28.6272 16.2872 28.5132 16.9098H25.7598C25.8913 15.2261 27.3119 13.8406 29.9865 13.8406C32.3366 13.8406 34.1693 14.9543 34.1781 17.015V23.4866H31.3895V22.1537H31.3194C30.802 23.1183 29.8812 23.6532 28.5483 23.662C26.7244 23.6532 25.4002 22.7237 25.409 20.8383ZM28.2151 20.7155C28.2063 21.3557 28.7237 21.6977 29.4428 21.6977C30.4512 21.6977 31.2404 21.04 31.2317 20.1017V19.4879C30.8721 19.4966 29.8725 19.5493 29.4252 19.5931C28.6799 19.672 28.2063 20.0842 28.2151 20.7155ZM35.9845 23.4866V13.9633H38.7906V15.6996H38.8958C39.2992 14.5421 40.2901 13.8406 41.5967 13.8406C42.9121 13.8406 43.9205 14.5596 44.1748 15.6996H44.2801C44.6484 14.5684 45.7533 13.8406 47.1563 13.8406C48.9452 13.8406 50.1904 15.0507 50.1904 17.0676V23.4866H47.2265V17.7341C47.2352 16.7607 46.674 16.2433 45.876 16.2433C45.0254 16.2433 44.5081 16.8484 44.5081 17.7691V23.4866H41.6669V17.699C41.6669 16.8045 41.132 16.2433 40.334 16.2433C39.5184 16.2433 38.9397 16.8659 38.9485 17.8393V23.4866H35.9845ZM52.0495 27.0644V13.9633H54.9783V15.5944H55.0836C55.4343 14.735 56.2499 13.8406 57.7669 13.8406C59.7838 13.8406 61.5727 15.3927 61.5727 18.7337C61.5727 21.9608 59.8803 23.6269 57.7669 23.6269C56.3025 23.6269 55.4519 22.8114 55.0836 21.9432H55.0134V27.0644H52.0495ZM54.9433 18.7162C54.9433 20.2946 55.6097 21.3118 56.7497 21.3118C57.9072 21.3118 58.5474 20.2859 58.5386 18.7162C58.5474 17.1641 57.916 16.1556 56.7497 16.1556C55.6009 16.1556 54.9433 17.1378 54.9433 18.7162ZM66.0975 10.7889V23.4866H63.1336V10.7889H66.0975ZM72.4288 23.662C69.4473 23.662 67.6234 21.8029 67.6234 18.7688C67.6234 15.8136 69.4649 13.8406 72.3236 13.8406C74.9982 13.8406 76.9186 15.5418 76.9186 18.6987V19.4528H70.5347V19.5054C70.5435 20.7243 71.2801 21.5223 72.4814 21.5223C73.2882 21.5223 73.8933 21.1715 74.13 20.6103H76.8835C76.524 22.4694 74.8929 23.662 72.4288 23.662ZM70.5347 17.7165H74.1651C74.1476 16.6993 73.411 15.9802 72.3937 15.9802C71.3502 15.9802 70.5785 16.7344 70.5347 17.7165Z" fill="white"/>
</svg>
