<svg width="122" height="133" viewBox="0 0 122 133" fill="none" xmlns="http://www.w3.org/2000/svg">
<path d="M106.595 4.89293C113.595 5.23673 119.425 11.7865 119.603 19.5264L121.914 118.399C122.092 126.13 116.561 132.124 109.562 131.781L20.2878 127.373C13.2881 127.029 7.4582 120.479 7.2804 112.74L4.96901 13.8669C4.79121 6.13591 10.3217 0.141473 17.3214 0.485271L106.595 4.89293Z" fill="url(#paint0_linear_4284_15690)"/>
<path d="M109.567 131.773L20.2933 127.365C13.2936 127.021 7.46368 120.471 7.28588 112.732L4.97449 13.8589C4.96513 13.4534 4.97449 13.0479 4.99321 12.6512C4.99321 12.519 5.02128 12.3868 5.03064 12.2545C5.04935 11.9989 5.06806 11.7344 5.1055 11.4788C5.12421 11.3201 5.16165 11.1703 5.18036 11.0204C5.21779 10.7912 5.25522 10.562 5.30201 10.3416C5.33944 10.183 5.37688 10.0243 5.42367 9.87442C5.47981 9.66285 5.5266 9.44246 5.59211 9.23089C5.62018 9.13392 5.65761 9.04576 5.68569 8.94879C5.76055 8.71078 5.84477 8.47277 5.93834 8.23476C5.97578 8.13779 6.01321 8.03201 6.06 7.93504C6.16294 7.67939 6.27523 7.43257 6.39688 7.19456C6.42496 7.13285 6.45303 7.07115 6.4811 7.00944C6.63083 6.70972 6.78992 6.42762 6.96771 6.14553C7.0145 6.07501 7.06129 6.00449 7.10808 5.93397C7.23909 5.7224 7.37946 5.51964 7.51982 5.31689C7.58533 5.22874 7.64148 5.14939 7.70699 5.06124C7.85671 4.8673 8.01579 4.67337 8.17488 4.48825C8.23103 4.42654 8.27781 4.36484 8.33396 4.30313C8.54919 4.06512 8.77378 3.83592 8.99837 3.61554C9.04516 3.57146 9.1013 3.52738 9.14809 3.47449C9.33525 3.29818 9.5224 3.13951 9.71892 2.98083C9.79378 2.91913 9.878 2.85743 9.95286 2.79572C10.14 2.65468 10.3272 2.51363 10.5237 2.3814C10.5986 2.32851 10.6734 2.2756 10.7483 2.23153C11.0103 2.06404 11.2817 1.89654 11.5624 1.75549C11.5998 1.73786 11.6373 1.72025 11.6841 1.69381C11.9274 1.57039 12.18 1.45578 12.4327 1.35C12.5263 1.31473 12.6199 1.27947 12.7134 1.23539C12.9287 1.14724 13.1533 1.07674 13.3685 1.00621C13.4621 0.979767 13.5463 0.9445 13.6399 0.918054C13.9487 0.829901 14.2575 0.750546 14.5756 0.680023L10.5986 1.4646C10.2804 1.52631 9.97158 1.60563 9.66277 1.7026C9.5692 1.72905 9.47562 1.76432 9.39139 1.79076C9.16681 1.86128 8.95158 1.94063 8.73635 2.01997C8.64277 2.05523 8.54919 2.0905 8.45561 2.13457C8.20295 2.24036 7.95029 2.35494 7.70699 2.47836C7.66955 2.49599 7.63212 2.51362 7.58533 2.54007C7.30459 2.68993 7.03322 2.84861 6.7712 3.0161C6.69634 3.06018 6.62147 3.11306 6.54661 3.16595C6.35009 3.29818 6.16293 3.43041 5.97578 3.58027C5.89156 3.64198 5.8167 3.70368 5.73248 3.76538C5.53596 3.92406 5.34881 4.09155 5.16165 4.25904C5.11486 4.30312 5.05871 4.3472 5.01192 4.40009C4.77797 4.62047 4.56274 4.84967 4.34751 5.08768C4.29137 5.14939 4.24458 5.21112 4.18843 5.27282C4.02935 5.45794 3.87026 5.65188 3.72054 5.84581C3.65503 5.92515 3.59888 6.01331 3.53338 6.10146C3.39301 6.30422 3.25265 6.50695 3.12164 6.71852C3.07485 6.78904 3.02806 6.85956 2.98127 6.93008C2.81283 7.21217 2.65374 7.50309 2.49465 7.79399C2.46658 7.8557 2.43851 7.9174 2.41044 7.9791C2.28879 8.22593 2.17649 8.47279 2.07355 8.71962C2.03612 8.81658 1.98934 8.92236 1.9519 9.01933C1.85833 9.25735 1.7741 9.48654 1.69924 9.73337C1.67116 9.83034 1.63373 9.91847 1.60566 10.0154C1.5963 10.0595 1.57759 10.1036 1.56823 10.1477C1.52144 10.3152 1.48401 10.4915 1.43722 10.659C1.39979 10.8176 1.353 10.9675 1.31557 11.1262C1.26878 11.3466 1.23134 11.5758 1.19391 11.805C1.16584 11.9548 1.13777 12.1047 1.11906 12.2634C1.08162 12.519 1.06291 12.7747 1.04419 13.0391C1.03483 13.1713 1.01612 13.3036 1.00676 13.4358C0.988044 13.8325 0.978689 14.238 0.988047 14.6435L3.29943 113.516C3.47723 121.247 9.30717 127.797 16.3068 128.15L105.581 132.557C106.535 132.601 107.452 132.531 108.341 132.363L112.318 131.579C111.429 131.755 110.512 131.826 109.558 131.773H109.567Z" fill="#06102C"/>
<path d="M82.8656 59.4344L83.6142 91.6279L69.2312 90.9139C66.7888 90.7905 65.825 92.9326 65.825 92.9326L64.8985 92.8885C64.8985 92.8885 63.8411 90.6494 61.3893 90.526L46.5665 89.7943L45.8179 57.6008C45.8179 57.6008 44.7324 59.0113 44.0586 59.3374L44.8166 91.7778L60.884 92.5712C60.884 92.5712 62.896 93.0472 62.9428 94.9866L67.893 95.2334C67.8463 93.294 69.8489 93.0207 69.8489 93.0207L85.4297 93.7877L84.6717 61.3473C84.0073 60.9506 82.8563 59.4344 82.8563 59.4344" fill="white"/>
<path d="M59.4015 36.9192L59.336 33.9837L68.6938 34.4421L68.8062 39.2112L71.5854 39.3522L71.6603 42.5257L68.7687 42.3847L68.8155 44.2359L71.7071 44.377L71.7819 47.6563L68.8904 47.5152L69.1524 58.7283L66.1392 58.5784L62.5925 54.779L59.2237 58.1289L57.165 55.7223L62.6019 50.2568L66.0362 54.0738L65.6432 37.2365L59.4015 36.928M53.8242 30.008L54.3576 54.7085C54.3576 54.7085 55.8923 65.0224 64.801 65.4632C73.7097 65.904 74.9823 55.9074 74.9823 55.9074L74.4021 31.057L53.8242 30.0168" fill="white"/>
<path d="M80.0444 42.9419L75.4871 48.3281L75.6556 55.4244C75.6556 55.4244 75.7959 56.9054 75.2812 58.4304L77.9576 58.5626L86.5668 50.338L80.0444 42.9419Z" fill="white"/>
<path d="M81.2578 40.015L79.957 41.6634L87.7147 50.5757L89.2962 48.9978L81.2578 40.015Z" fill="white"/>
<path d="M89.1634 32.3092L82.4258 40.2606L89.0699 47.7624L96.3596 40.6925L89.1634 32.3092Z" fill="white"/>
<path d="M88.9664 19.1302C88.929 21.8277 90.6508 24.5869 90.6508 24.5869C90.6508 24.5869 89.8741 24.5516 89.4062 23.7847C90.5853 27.0199 93.5237 28.7301 93.5237 28.7301C93.5237 28.7301 94.7963 27.637 96.3965 27.7163C96.9674 27.7427 97.5756 27.9191 98.1839 28.351C100.271 29.832 100.168 31.9829 99.756 33.314C99.2975 33.2171 99.1852 33.1465 99.1852 33.1465C99.1852 33.1465 99.9619 30.8457 98.3242 29.2766C97.7534 28.7477 97.089 28.5097 96.4433 28.4744C95.4888 28.4303 94.5717 28.827 94.0945 29.3824C93.271 30.308 93.3927 32.5912 94.029 34.0193C92.8873 32.8027 89.453 28.7212 89.453 28.7212V31.595H89.4717L97.0141 40.3927L99.5782 40.3751L96.9393 37.3074C96.9393 37.3074 98.5208 38.3652 100.327 38.4534C101.581 38.5151 102.938 38.1096 103.948 36.5669C106.428 32.7851 103.19 28.3598 102.629 27.6105C102.058 26.8436 100.14 24.6838 97.2013 24.1637C94.8431 23.7494 90.5759 21.766 88.957 19.1214" fill="white"/>
<path d="M81.4918 35.6582C79.9477 35.5789 78.2072 35.7287 77 36.5221C78.6751 38.0207 80.949 38.3557 82.2217 38.4174C82.8019 38.4438 83.1668 38.4174 83.1668 38.4174L84.9635 36.1783C84.9635 36.1783 83.3727 35.7552 81.5011 35.6582" fill="white"/>
<path d="M81.1891 26.5532C81.0487 30.1322 84.1742 35.2187 85.1474 35.9415L86.5043 34.4165C86.5043 34.4165 85.0913 28.9334 81.1797 26.5444" fill="white"/>
<path d="M28.7639 21.5197C27.9778 21.4844 27.2198 21.6872 26.5273 22.269L36.3624 33.2352C36.3624 33.2352 37.5135 29.8766 38.1592 29.1714C36.8959 27.5229 34.8371 25.2309 34.8371 25.2309C34.8371 25.2309 31.6929 21.6695 28.7639 21.5197Z" fill="white"/>
<path d="M25.9996 22.8413C25.9996 22.8413 23.7444 26.5261 25.513 30.8544C27.1694 31.9563 28.8725 32.3442 30.323 32.4147C32.5501 32.5205 34.1878 31.8858 34.1878 31.8858L25.9903 22.8325" fill="white"/>
<path d="M26.0859 32.231V32.2391H26.094L26.0859 32.231Z" fill="white"/>
<path d="M36.3521 39.8815C36.3521 39.8815 36.3521 41.0187 35.7812 41.5212C36.6515 40.9394 38.2424 40.6573 38.2424 40.6573C38.2424 40.6573 36.6796 40.4898 36.3614 39.8815" fill="white"/>
<path d="M43.1275 41.6087C43.1275 41.6087 42.0794 42.9574 41.4805 43.2571C41.5928 43.2748 41.7144 43.2924 41.8454 43.2924C42.9403 43.3453 44.3346 42.9486 44.3346 42.9486L43.1181 41.6087" fill="white"/>
<path d="M46.5927 38.7356C45.2171 40.1108 43.5795 40.4458 43.1022 40.4193C43.0741 40.4193 43.0554 40.4193 43.0273 40.4193C43.4765 40.9306 45.9657 43.6193 45.9657 43.6193C45.9657 43.6193 46.8266 41.4948 46.5927 38.7444" fill="white"/>
<path d="M44.925 43.5583C44.925 43.5583 42.9505 44.2899 40.8731 44.193C40.6859 44.1841 40.5081 44.1665 40.321 44.1489C40.0028 44.5015 39.6378 44.6513 39.6378 44.6513L40.0122 44.7395C40.0122 44.7395 40.2087 45.4359 39.3945 46.7494C39.9654 47.437 41.734 47.7984 43.5681 47.8866C45.5801 47.9836 47.6762 47.7543 48.3406 47.2607C47.199 46.0618 44.9157 43.5671 44.9157 43.5671" fill="white"/>
<path d="M47.3283 39.6698C47.3283 39.6698 47.5248 42.7993 46.5703 44.2979C47.5248 45.3557 53.6636 52.1523 53.6636 52.1523L53.5419 47.0835L47.3189 39.6698" fill="white"/>
<path d="M48.8921 47.8872C48.8921 47.8872 47.9657 48.9627 43.371 48.7335C42.7159 48.6982 41.986 48.6454 41.1719 48.5484L41.1906 48.566L46.3468 53.529C46.3468 53.529 46.7398 53.5995 47.3761 53.626C48.6769 53.6877 50.9976 53.5996 53.1125 52.48C51.5965 50.8668 48.8921 47.8872 48.8921 47.8872Z" fill="white"/>
<path d="M53.6955 53.139C52.1608 54.0822 49.1756 54.5759 47.669 54.5054C47.5661 54.5054 47.4725 54.4966 47.3789 54.4789L49.8868 56.9296L54.3037 57.15C54.3037 57.15 53.6393 55.5985 53.6955 53.139Z" fill="white"/>
<path d="M35.728 94.1837L29.2617 101.474V101.456C29.2617 101.456 28.4102 102.708 29.1494 103.528C29.477 103.898 29.8232 104.057 30.1601 104.074C30.5718 104.092 30.9649 103.898 31.2737 103.634C31.8258 103.184 37.375 97.842 37.375 97.842C37.375 97.842 35.4847 96.6696 35.2508 95.7352C35.6064 95.2944 36.7387 94.9418 37.2533 94.9683C37.2908 94.9683 37.3188 94.9682 37.3563 94.9771C36.6077 94.8272 35.7187 94.1837 35.7187 94.1837" fill="white"/>
<path d="M57.5407 97.8688C57.5781 97.9745 59.3187 102.735 63.7169 104.798C59.3093 104.824 55.482 107.936 55.0234 108.826C55.3322 108.861 55.6317 108.888 55.9218 108.897C60.0299 109.099 63.1086 107.38 64.7182 105.67L64.7837 108.526L66.7208 108.623L66.6553 105.723C67.3103 106.402 70.6791 109.664 75.096 109.884C75.4891 109.902 75.9008 109.902 76.3126 109.866C73.1683 106.041 69.1351 105.23 67.8531 104.992C70.3329 103.898 73.159 101.06 73.4958 98.7679C71.6991 98.7856 67.6191 101.95 66.6272 104.092L66.5804 102.082L64.6433 101.986L64.6901 103.943C64.0725 102.929 61.4149 98.953 57.5594 97.8511" fill="white"/>
<path d="M88.9862 88.8326L86.1602 88.6915L86.2537 92.4028L100.861 106.71L104.24 106.878L88.9862 88.8326Z" fill="white"/>
<path d="M89.0024 83.9676L86.0547 83.8265L86.1483 87.7317L88.9556 87.8728L90.3406 89.4154C90.3406 89.4154 90.4342 88.1284 89.751 86.8149C89.4422 87.0001 89.2176 87.291 89.0866 87.5202L89.0024 83.9764" fill="white"/>
<path d="M31.7591 49.1026C31.8621 48.4855 31.9931 47.7097 32.0492 46.74C32.227 47.2161 32.6481 47.5687 33.1348 47.5863C33.2564 47.5863 33.3874 47.5687 33.4997 47.5334C32.8634 47.983 32.2645 48.5031 31.7591 49.1026ZM34.6226 32.4592C31.0386 38.3831 32.8072 43.8751 33.2751 45.074L33.0786 45.0387C32.6294 45.0122 32.2458 45.2855 32.0586 45.691C32.0118 43.8574 31.5907 41.398 30.187 38.0393C31.0386 38.9209 31.6843 39.4939 31.6843 39.4939C31.6843 39.4939 31.7779 36.2851 33.3687 33.0763C32.592 33.4025 31.703 33.4995 30.8234 33.4554C28.4933 33.3408 26.2006 32.2829 26.0977 32.2389C26.6966 34.1606 28.7085 36.4878 30.1402 37.9776C27.0521 45.3031 30.9169 51.2094 30.9169 51.2094C33.6401 50.9009 37.3926 49.3318 39.1519 45.5147C39.1051 45.5147 39.0583 45.5059 39.0115 45.4971C38.1038 45.453 35.914 45.9908 33.9676 47.2249C34.1641 47.0045 34.2764 46.696 34.2671 46.3698C34.2577 45.9555 34.0612 45.5676 33.7711 45.3208C36.4942 45.3472 40.1906 44.2894 42.3335 41.0189C42.1744 40.966 41.9499 40.9396 41.6785 40.922C40.0596 40.8426 36.672 41.4421 34.4823 43.3991C35.0157 41.6007 36.4381 38.8856 34.632 32.4592" fill="white"/>
<path d="M38.5166 38.1377C38.7787 37.6264 39.153 37.0358 39.5179 36.2688C39.6302 36.7978 40.042 37.2473 40.5379 37.3355C39.8361 37.5206 39.1436 37.7851 38.5166 38.1377ZM46.7048 24.2095C41.4082 28.1499 41.2398 33.7124 41.2772 35.0876C41.0901 34.9289 40.8561 34.8319 40.6128 34.8231C40.3976 34.8143 40.2011 34.8672 40.042 34.9642C40.5847 33.3333 40.931 31.0502 40.5847 27.5858C35.3537 33.2099 36.8229 39.6098 36.8229 39.6098C37.5715 39.8038 38.4418 39.9448 39.3682 39.9977C41.82 40.1211 44.6648 39.5569 46.7235 37.4677C46.3117 37.2385 45.3853 37.0358 44.2249 36.9829C43.3359 36.9388 42.3159 36.9829 41.2959 37.168C41.5954 36.9476 41.7825 36.5686 41.7732 36.1278C41.7732 35.925 41.717 35.7311 41.6422 35.5548C42.7932 36.0396 44.1969 36.4099 45.6754 36.4804C47.547 36.5686 49.5402 36.1895 51.2901 34.9818C50.6725 34.4969 48.6606 33.7917 46.4334 33.6859C45.2824 33.633 44.0846 33.73 42.9897 34.1003C44.0752 32.6898 46.3398 30.7769 46.6954 24.2095" fill="white"/>
<path d="M48.2449 30.6349C48.7221 30.2823 49.3397 29.912 50.0135 29.339C49.9761 29.4625 49.9574 29.6035 49.9574 29.7534C49.9667 30.2206 50.21 30.6261 50.5375 30.8553C50.0229 30.7407 49.4894 30.6702 48.9654 30.6437C48.7221 30.6349 48.4788 30.6261 48.2355 30.6437M60.9435 21.2907C54.1684 22.7804 52.2687 28.2548 52.0161 29.0834C51.8008 28.7837 51.4733 28.5721 51.0896 28.5457C50.9961 28.5457 50.9025 28.5457 50.8183 28.5633C51.9506 27.3732 53.1577 25.5044 54.1497 22.2251C47.1126 24.8873 46.2891 31.4107 46.2891 31.4107C47.936 32.7506 50.3972 34.02 53.0642 34.1522C53.0642 34.1522 53.0829 34.1522 53.0922 34.1522L53.0361 31.6751C52.5027 31.4371 51.9319 31.2167 51.3236 31.0404C51.8663 30.9699 52.2874 30.4762 52.2687 29.8503C52.2687 29.6123 52.1939 29.3831 52.0816 29.1892L57.2565 29.4096C56.0961 28.8366 55.3194 28.8101 54.0374 28.6867C55.5721 27.8581 58.3607 27.0471 60.9435 21.2819" fill="white"/>
<path d="M71.798 30.1142H71.7617V30.1233L71.798 30.1142Z" fill="white"/>
<path d="M77.9721 32.3101C78.3277 32.1074 78.571 31.6931 78.5616 31.217V31.0848C79.0763 31.6666 79.591 32.1426 80.0215 32.4159C79.7126 32.3718 79.3945 32.3366 79.0763 32.3189C78.7113 32.3013 78.337 32.3013 77.9721 32.3189M67.4258 21.6171C70.2706 27.6468 73.1247 28.7399 74.6781 29.7272C73.8266 29.7272 72.6194 29.8595 71.8053 30.1239L76.4935 30.3531C76.3532 30.5559 76.2596 30.8203 76.2689 31.1024C76.2783 31.6754 76.6246 32.1779 77.0924 32.363C76.0257 32.4512 75.2209 32.6098 75.2209 32.6098L75.2864 35.3514C75.2864 35.3514 75.3893 35.3602 75.5765 35.369C76.5497 35.4131 79.7407 35.4131 81.9866 33.4737C81.8462 29.9388 77.7101 24.6144 74.4535 23.4772C74.7156 25.3901 76.1379 27.9906 77.6165 29.9388C77.5416 29.9212 77.448 29.9036 77.3732 29.9036C77.0924 29.8859 76.8491 29.9917 76.662 30.1504C76.269 29.0573 74.0699 23.6976 67.4258 21.6083" fill="white"/>
<path d="M29.2756 61.8577C29.1726 61.1965 29.1165 60.3855 28.92 59.407C29.1352 59.6891 29.4627 59.883 29.8183 59.9007C30.0055 59.9095 30.1646 59.8742 30.3236 59.8037C29.9025 60.4472 29.5376 61.126 29.2756 61.8577ZM27.273 44.4826C25.3078 51.9404 29.0416 56.9563 29.4066 57.4236C29.0229 57.547 28.7328 57.9084 28.6673 58.3668C28.162 56.6213 27.1326 54.4175 24.8399 51.6936C24.1662 59.9095 29.1539 64.1761 29.1539 64.1761C31.5589 62.9067 34.544 60.0241 35.0119 55.7046C34.2633 55.8544 32.4292 57.0886 30.9506 58.9486C30.96 58.8692 30.9693 58.7899 30.9693 58.7018C30.9506 58.023 30.4172 57.3883 29.7809 57.3618H29.7435C32.3356 56.5508 35.5828 54.3734 36.7431 50.4154C35.6015 50.433 31.8022 52.1873 30.0055 55.2197C30.0429 53.3068 30.6512 50.2126 27.2917 44.4738" fill="white"/>
<path d="M35.4037 73.2649C34.599 74.0406 32.8771 78.1398 33.345 81.8951C32.2408 80.2907 30.8933 77.3464 25.082 75.0632C28.1982 82.8912 34.2714 84.0725 34.2714 84.0725C35.7313 81.6571 36.9478 77.4345 35.4131 73.2649" fill="white"/>
<path d="M37.465 78.9608C36.8193 79.9041 35.8274 84.3206 36.9316 87.9701C36.3888 87.4147 35.7619 86.6566 34.798 85.8632C34.9571 85.9514 35.1255 86.0043 35.3033 86.0131C35.9303 86.0484 36.445 85.5018 36.4263 84.8142C36.4076 84.1266 35.8929 83.536 35.2378 83.5007C34.5828 83.4655 34.1055 84.012 34.1149 84.6996C34.1149 85.0434 34.2646 85.3784 34.4892 85.6164C33.0949 84.5409 31.0549 83.4478 27.7422 82.8396C31.7193 89.3894 37.1749 89.9271 38.0545 89.9712C38.1388 89.9712 38.1762 89.9712 38.1762 89.9712C39.1775 87.2296 39.636 82.7955 37.4556 78.9608" fill="white"/>
<path d="M39.8179 84.082C39.3032 85.1222 38.9477 89.715 40.5011 93.1706C39.0693 92.0863 37.0387 89.8384 31.4894 89.5652C31.2836 89.5563 31.0683 89.5475 30.8438 89.5387C34.4933 94.0522 38.5078 94.9072 40.5853 95.013C41.3245 95.0483 41.8112 94.9954 41.9609 94.969V95.1012C41.9702 95.7976 42.5036 96.397 43.14 96.4235C43.7763 96.4499 44.2816 95.9122 44.2629 95.2158C44.2442 94.5194 43.7202 93.9287 43.0745 93.9023C42.644 93.8847 42.279 94.1227 42.0825 94.5017C42.5879 91.6191 42.3258 87.3966 39.7992 84.0909" fill="white"/>
<path d="M46.7682 92.9417L43.6427 92.7831C43.9422 94.4844 44.5411 96.0359 46.2255 97.9841C44.9996 97.3317 43.2965 96.0447 40.0119 95.886C38.9357 95.8331 37.7005 95.9037 36.25 96.1505C39.3942 98.9714 42.4262 99.7736 44.6159 99.8794C46.6559 99.9763 47.9754 99.4827 47.9754 99.4827C48.0783 97.605 47.7882 95.2337 46.7869 92.9417" fill="white"/>
<path d="M47.9016 92.6862C47.7799 93.9115 48.9497 98.4338 51.495 101.131C50.5686 100.867 49.3427 100.32 47.546 100.232C46.0113 100.153 44.0649 100.408 41.5195 101.44C43.8964 102.877 46.0675 103.414 47.8829 103.503C51.2798 103.67 53.4508 102.277 53.4508 102.277V102.26C53.0578 99.2536 51.4482 94.9605 47.9016 92.6862Z" fill="white"/>
<path d="M52.8154 95.8147C52.8996 97.0312 54.7431 101.342 57.6721 103.563C57.0919 103.502 56.3901 103.361 55.5198 103.317C55.3233 103.308 55.1081 103.299 54.8928 103.308C55.3982 103.202 55.7444 102.735 55.735 102.135C55.7163 101.439 55.2016 100.848 54.5653 100.822C53.929 100.795 53.433 101.333 53.4517 102.03C53.4704 102.726 53.9383 103.237 54.5279 103.325C52.8902 103.414 50.766 103.942 47.9961 105.767C49.5682 106.375 51.0093 106.649 52.3007 106.71C57.0171 106.94 59.7402 104.313 59.7402 104.313C58.8886 101.395 56.6521 97.4368 52.8154 95.8236" fill="white"/>
<path d="M96.626 52.3726C96.1581 51.7908 95.6154 51.2619 95.0539 50.8035H95.1475C95.6154 50.8299 95.9897 50.5655 96.1675 50.1688C96.3172 51.0591 96.5231 51.7732 96.6354 52.3814M97.3933 41.5298C96.1394 44.7121 95.9055 47.057 96.0177 48.8377C95.7932 48.5291 95.4656 48.3264 95.082 48.2999H95.0352C95.6902 44.9589 95.2598 43.0195 95.2598 43.0195L93.1636 45.0206C93.042 45.1881 93.4163 46.1226 93.4163 46.1226C93.1917 45.911 92.3027 45.8669 92.3027 45.8669L90.5434 47.5154C91.4137 48.0619 93.3976 48.3969 94.3895 48.5379C94.1181 48.7495 93.9403 49.1021 93.9497 49.5076C93.9497 49.7192 94.0058 49.9308 94.1087 50.1159C92.1717 48.8024 90.1036 48.106 89.2239 48.0619C89.1678 48.0619 89.121 48.0619 89.0742 48.0619C91.0019 52.0552 94.8387 54.0034 97.5712 54.5676C97.5712 54.5676 100.846 49.1815 97.384 41.5298" fill="white"/>
<path d="M99.9482 63.2868C99.7985 64.23 99.7798 65.0234 99.7143 65.6669C99.4055 64.8735 98.9844 64.1242 98.5071 63.4278C98.6849 63.5512 98.9001 63.6305 99.1154 63.6394C99.4429 63.657 99.7423 63.5248 99.9482 63.2868ZM100.931 48.4594C97.8053 53.872 98.582 57.0367 98.6849 58.9584C96.7385 55.7232 92.855 53.6075 91.7227 53.4841C93.0608 57.5744 96.4671 60.0692 99.0873 61.1358H99.0405C98.4135 61.1006 97.8801 61.6471 97.8988 62.3259C97.8988 62.4493 97.9269 62.5815 97.9643 62.6873C96.3735 60.6245 94.4364 59.1788 93.6691 58.932C94.3335 63.322 97.4684 66.4867 99.9295 67.9941C99.9295 67.9941 104.711 64.2124 103.673 55.926C101.539 58.359 100.603 60.413 100.173 62.0967C100.061 61.6824 99.7517 61.3474 99.3774 61.1975C99.7611 60.7127 103.214 56.067 100.921 48.4506" fill="white"/>
<path d="M105.356 63.8779C100.574 67.5539 100.294 70.7362 99.7603 72.5257C98.9555 68.8233 95.9423 65.3412 94.9036 64.8123C94.8381 69.1935 97.4021 72.9048 99.6293 74.8706C99.6293 74.8706 105.038 72.1555 105.366 63.8779" fill="white"/>
<path d="M98.6134 79.012C98.5572 78.2275 98.4075 77.4429 98.1923 76.676C98.4169 76.9581 98.735 77.152 99.0906 77.1696C99.2217 77.1696 99.3527 77.1608 99.465 77.1167C99.0906 77.8484 98.8567 78.4919 98.6134 79.012ZM94.8796 70.6287C94.1684 74.8688 96.1991 78.9503 98.1455 81.2599C98.1455 81.2599 103.919 79.5586 105.463 71.5455C102.665 73 101.131 74.5427 100.195 75.909C100.148 75.2479 99.6428 74.6837 99.0439 74.6573C98.445 74.6308 97.9396 75.1068 97.9115 75.7768C97.0226 73.2468 95.5627 71.14 94.889 70.6287" fill="white"/>
<path d="M93.2942 91.0911C93.5188 90.236 93.6217 89.3281 93.6404 88.4201C93.7901 88.9666 94.2487 89.3633 94.7727 89.3898C94.885 89.3898 94.9973 89.3898 95.1096 89.3545C94.3142 89.998 93.7714 90.6327 93.2942 91.1M94.258 76.4048C92.8076 80.31 94.0334 84.6207 95.512 87.2741C95.2967 87.0449 95.016 86.895 94.7165 86.8774C94.2019 86.851 93.7714 87.186 93.631 87.6884C93.5468 85.1055 92.8263 82.699 92.349 82.0114C90.9079 84.6119 90.833 87.6796 91.3384 90.2537L93.6778 92.8983C95.7646 92.6338 99.4797 91.4614 102.25 86.8422C99.0118 87.1243 97.0186 87.9881 95.6804 88.9137C95.8208 88.711 95.8956 88.4554 95.8956 88.1733C95.8956 87.8824 95.7927 87.6003 95.6243 87.3799C95.9892 87.3534 101.754 86.754 104.636 79.5695C98.8621 81.1034 97.552 83.8802 96.4665 85.3083C96.8782 81.6323 95.0722 77.2952 94.2674 76.3784" fill="white"/>
<path d="M98.7571 93.2233C96.7265 93.1263 95.3509 93.3114 94.125 93.6817L96.1557 96.0707C97.2692 95.3919 98.4109 94.528 99.4496 93.2674C99.2063 93.2497 98.9817 93.2321 98.7571 93.2233Z" fill="white"/>
<path d="M87.4219 94.6171C87.4686 95.525 87.5529 96.4242 87.7119 97.2352C87.4967 96.865 87.1318 96.6005 86.7106 96.5829C86.2802 96.5653 85.8965 96.8121 85.7094 97.1912C85.9246 96.3978 86.0743 95.5868 86.1492 94.8374L83.7629 94.7229C82.7523 97.0149 82.5558 99.5713 82.7429 101.537C82.7429 101.537 84.0811 102.163 86.1211 102.26C88.002 102.357 90.4912 101.995 93.0646 100.294L91.4176 98.7955C91.0901 98.7603 90.772 98.7338 90.4725 98.7162C87.2815 98.5575 85.6439 99.6859 84.4273 100.188C84.9327 99.4126 85.3163 98.5223 85.5971 97.6143V97.7906C85.5971 98.487 86.1398 99.0776 86.7762 99.1041C87.4125 99.1305 87.9178 98.5928 87.8991 97.9052V97.7906C88.0675 97.8258 88.5729 97.914 89.2934 97.9493C89.7332 97.9669 90.2479 97.9757 90.8187 97.9316L87.4312 94.6347" fill="white"/>
<path d="M93.0664 100.292L93.0745 100.3L93.0664 100.292Z" fill="white"/>
<path d="M82.5767 94.8445C79.2828 96.5459 77.7481 100.222 77.2896 103.122C77.1305 102.602 76.6907 102.223 76.1853 102.205C75.8391 102.188 75.5396 102.338 75.3431 102.584C76.8404 100.61 77.6826 98.2737 77.7013 97.401C73.9301 98.6351 71.8714 102.373 71.1602 105.229C71.1602 105.229 74.0143 108.129 78.7213 108.367C80.0127 108.429 81.4444 108.297 82.9885 107.838C79.4886 105.282 77.065 104.735 75.3057 104.647C74.4635 104.603 73.771 104.674 73.1908 104.674C73.9862 104.136 74.6787 103.431 75.2776 102.664C75.1373 102.866 75.053 103.122 75.0624 103.413C75.0811 104.101 75.5958 104.691 76.2415 104.718C76.7936 104.744 77.2241 104.356 77.327 103.801C77.851 104.162 80.0314 105.546 83.1663 105.696C84.9068 105.784 86.9375 105.493 89.146 104.436C86.4041 102.972 84.3547 102.487 82.7826 102.408C81.2105 102.329 80.022 102.681 79.1331 102.822C81.641 100.451 82.7171 96.0699 82.5767 94.8445Z" fill="white"/>
<path d="M88.5727 65.6751L85.625 65.534L85.7092 69.4216L88.6569 69.5626L88.5727 65.6751Z" fill="white"/>
<path d="M43.4477 63.5777L40.5 63.4366L40.5936 67.333L43.5319 67.4828L43.4477 63.5777Z" fill="white"/>
<path d="M43.8196 81.7369L40.8906 81.5871L40.9842 85.4923L43.9132 85.6421L43.8196 81.7369Z" fill="white"/>
<path d="M30.4303 73.3364C30.8327 73.354 31.1977 73.1424 31.3942 72.8075C31.179 73.6185 31.0386 74.4736 31.0199 75.3375C30.7392 74.7645 30.4584 74.0416 30.0092 73.2306C30.1403 73.2923 30.2806 73.3276 30.4303 73.3364ZM23.543 59.5052C24.2167 67.1657 28.9612 70.5155 29.7192 71.0091C29.4291 71.2207 29.2513 71.5821 29.2513 72.0053C28.2406 70.5507 26.6311 68.8758 23.7863 67.1657C25.714 75.3639 31.6001 77.6471 31.6001 77.6471C33.4249 75.5226 35.2777 71.6262 34.3794 67.2891C33.715 67.7475 32.3206 69.7486 31.5627 72.2345V72.1463C31.5439 71.4411 31.0012 70.8416 30.3742 70.8152C30.2806 70.8152 30.1964 70.8152 30.1215 70.8328C32.1709 69.0169 34.37 65.6671 34.108 61.4622C33.0973 61.9029 30.2151 65.0764 29.5788 68.726C28.9612 66.8748 28.5214 63.666 23.5523 59.5052" fill="white"/>
<path d="M64.0649 26.2712C63.4192 26.2359 62.9232 26.7825 62.9419 27.4701C62.9606 28.1577 63.4847 28.7571 64.1304 28.7835C64.7761 28.81 65.2627 28.2723 65.2533 27.5759C65.244 26.8794 64.7199 26.2976 64.0742 26.2712" fill="white"/>
<path d="M59.8104 26.5536C57.5552 26.439 56.5352 28.3696 56.5352 28.3696C57.3867 28.6781 58.1353 28.828 58.781 28.8544C61.317 28.9778 62.2996 27.3823 62.2996 27.3823C61.3451 26.8269 60.5216 26.5889 59.8198 26.5536" fill="white"/>
<path d="M68.3572 27.083C67.646 27.0477 66.8225 27.2064 65.8867 27.6736C65.8867 27.6736 66.9629 29.3749 69.4801 29.4984C70.1352 29.5336 70.8838 29.4543 71.7354 29.2251C71.7354 29.2251 70.6124 27.1976 68.3572 27.083Z" fill="white"/>
<path d="M43.952 86.3745L42.1085 86.2863H42.0898C43.1941 88.0582 43.2783 91.7077 43.2783 91.7077L44.0737 91.743L43.952 86.3745Z" fill="white"/>
<path d="M78.4732 78.3423L77.9023 81.1191L79.1563 81.1808L78.4732 78.3423Z" fill="white"/>
<path d="M76.4059 83.4824L77.8563 76.4566L78.9418 76.5095L80.7666 83.7292L79.7653 83.6763H79.7466L79.2974 82.1513L77.6785 82.1072L77.3978 83.5264L76.3965 83.4736M75.9099 83.5441L73.1306 83.359L72.9622 76.2009L75.7976 76.342L75.8163 77.3293H75.7976L73.9447 77.2411L73.9915 79.1981L75.5917 79.2775L75.6104 80.2207L73.9915 80.1414L74.0477 82.5127L75.8724 82.6008L75.8912 83.5529M69.6308 80.1237L70.9221 76.0599L71.6053 76.0951L72.4662 83.3325L71.5772 83.2884L70.997 79.3392L69.6963 82.9623L68.1803 79.0747L67.6563 83.0681L66.683 83.024L67.5346 75.9188L68.1709 75.9541L69.6308 80.1237ZM67.1416 73.7679L66.9731 66.5922L67.8247 66.6363L67.9651 72.8423L70.1735 72.9481L70.1922 73.9178L67.1322 73.7679M72.9715 74.1734C71.0719 74.0764 71.0157 72.0048 71.0157 72.0048L70.8754 66.7862L71.8767 66.8391L71.9983 72.0577C71.9983 72.0577 72.0545 72.8687 72.8686 72.9128C73.6827 72.9569 73.6921 72.1811 73.6921 72.1811L73.5704 66.9713L74.6746 67.0242L74.7963 72.1988C74.7963 72.1988 74.8618 74.2704 72.9715 74.1734ZM75.6666 74.288L77.4165 70.4269L75.8912 67.033L77.0048 67.0859L77.9125 69.1839L78.8389 67.2269L79.8963 67.2798L78.5301 70.4621L80.2894 74.4467L79.0822 74.385L77.9218 71.8021L76.7895 74.3409L75.6666 74.288ZM82.1703 59.2667L74.7682 58.9053C72.12 66.3542 66.3649 66.4335 65.2794 66.3806C65.1671 66.3806 65.1016 66.3718 65.1016 66.3718L65.6911 91.6894C66.5614 90.1468 68.0961 89.9969 68.9008 90.0322C69.2284 90.0498 69.4343 90.0939 69.4343 90.0939L82.9096 90.755L82.1703 59.2755" fill="white"/>
<path d="M55.9489 77.2229L55.3594 80.0086L56.632 80.0703L55.9489 77.2229Z" fill="white"/>
<path d="M53.8848 82.3633L55.3353 75.3287L56.4301 75.3816L58.2268 82.6101L57.2255 82.5572L56.767 81.0322L55.1575 80.9881L54.8767 82.4074L53.8848 82.3545M49.7112 75.9017L49.6831 74.8615L53.4637 75.0907L53.4824 76.0868L52.1349 76.0251L52.2753 82.1958L51.2552 82.1429L51.1149 75.9722L49.7018 75.9017M60.9968 81.5435C61.839 81.5876 62.0729 80.944 62.0636 80.5297C62.0542 80.1154 62.1197 79.6394 60.4447 79.1281C58.3485 78.4581 58.6947 76.0163 59.6867 75.5403C60.1265 75.3463 60.5944 75.2934 61.0342 75.311C62.0261 75.3639 62.859 75.7871 62.859 75.7871L62.8871 76.9331C62.4379 76.5804 61.6893 76.5452 61.4272 76.413C61.3617 76.3777 61.2494 76.3601 61.1184 76.3512C60.6786 76.3336 60.0048 76.4923 60.0236 77.1182C60.0423 77.9292 60.7254 78.1231 61.8483 78.5551C63.8696 79.4719 63.3549 81.8785 62.2226 82.425V82.3897C61.7547 82.6189 61.1465 82.663 60.5944 82.6366C59.7896 82.5925 59.0878 82.4074 59.0878 82.4074L59.0597 81.3143C59.0597 81.3143 60.0236 81.4641 60.9313 81.5435C60.95 81.5435 60.9687 81.5435 60.9874 81.5435M62.1291 73.354L61.9606 66.2577L62.8496 66.3018L63.0181 73.3981L62.1291 73.354ZM57.5624 73.0896L57.394 65.8875L59.4808 65.9933C59.4808 65.9933 60.9968 66.434 61.0342 68.1354C61.0716 69.8367 59.9768 70.0395 59.9768 70.0395L61.2681 73.2747L60.061 73.213L58.938 70.0836L58.4701 70.0571L58.545 73.1337L57.5718 73.0896M53.8567 72.9309L53.6883 65.6847L56.5518 65.8258L56.5705 66.8219L54.6053 66.7249L54.6521 68.6819L56.4021 68.7701L56.4208 69.6516L54.6709 69.5635L54.727 71.9701L56.7202 72.067L56.7483 73.0808L53.8567 72.9397M50.8903 72.7722L49.3743 65.3938H50.4318L51.3301 69.7133L52.1255 65.526L53.1642 65.579L51.8448 72.8163L50.8809 72.7722M54.465 57.892L46.4453 57.4953L47.1846 88.9748L61.1278 89.6624C61.1278 89.6624 61.343 89.636 61.6799 89.6536C62.494 89.6977 64.0194 89.9974 64.9645 91.637L64.3749 66.3194C64.3749 66.3194 64.375 66.3194 64.3562 66.3194C64.0006 66.3018 57.7028 65.8787 54.4743 57.892" fill="white"/>
<path d="M59.2368 67.1034L58.4414 67.0681L58.4882 69.0956L59.4146 69.175C59.4146 69.175 59.4146 69.175 59.4333 69.175C59.5456 69.175 60.051 69.1573 60.0322 68.2317C60.0042 67.1739 59.2275 67.1034 59.2275 67.1034" fill="white"/>
<mask id="mask0_4284_15690" style="mask-type:luminance" maskUnits="userSpaceOnUse" x="0" y="0" width="122" height="133">
<path d="M121.909 118.393L119.598 19.5203C119.42 11.7893 113.59 5.23949 106.591 4.88687L17.3167 0.479215C16.0721 0.417508 14.8649 0.567361 13.742 0.884712C14.0134 0.805374 14.2847 0.734842 14.5561 0.68195L10.579 1.46653C10.2609 1.52823 9.95205 1.60756 9.64324 1.70453C9.54966 1.73098 9.45608 1.76624 9.37186 1.79269C9.14727 1.86321 8.93205 1.94256 8.71682 2.0219C8.62324 2.05716 8.52966 2.09242 8.43608 2.1365C8.18342 2.24228 7.93076 2.35687 7.68745 2.48028C7.65002 2.49791 7.61259 2.51555 7.5658 2.542C7.28506 2.69186 7.01369 2.85054 6.75167 3.01803C6.67681 3.06211 6.60194 3.11498 6.52708 3.16788C6.33057 3.30011 6.14341 3.43234 5.95625 3.5822C5.87203 3.6439 5.79717 3.7056 5.71295 3.76731C5.51643 3.92599 5.32927 4.09348 5.14212 4.26097C5.09533 4.30504 5.03918 4.34912 4.99239 4.40202C4.75844 4.6224 4.54321 4.8516 4.32798 5.08961C4.27183 5.15132 4.22505 5.21304 4.1689 5.27475C4.00982 5.45987 3.85073 5.6538 3.70101 5.84774C3.6355 5.92708 3.57936 6.01524 3.51385 6.10339C3.37348 6.30614 3.23311 6.50888 3.1021 6.72045C3.05532 6.79097 3.00852 6.86149 2.96174 6.93201C2.79329 7.2141 2.63421 7.50501 2.47513 7.79592C2.44706 7.85763 2.41898 7.91933 2.39091 7.98103C2.26925 8.22786 2.15696 8.47471 2.05402 8.72154C2.01659 8.81851 1.9698 8.92429 1.93237 9.02126C1.83879 9.25927 1.75458 9.48847 1.67971 9.7353C1.65164 9.83227 1.6142 9.9204 1.58613 10.0174C1.57677 10.0614 1.55806 10.1055 1.5487 10.1496C1.50191 10.3171 1.46448 10.4934 1.41769 10.6609C1.38026 10.8196 1.33347 10.9694 1.29604 11.1281C1.24925 11.3485 1.21182 11.5777 1.17439 11.8069C1.14632 11.9568 1.11824 12.1066 1.09952 12.2653C1.06209 12.5209 1.04338 12.7766 1.02466 13.041C1.0153 13.1733 0.996586 13.3055 0.987228 13.4377C0.968512 13.8344 0.959158 14.2399 0.968515 14.6454L3.27991 113.518C3.45771 121.249 9.28764 127.799 16.2873 128.151L105.561 132.559C106.516 132.603 107.433 132.533 108.322 132.365L112.299 131.581C112.299 131.581 112.233 131.581 112.196 131.598C117.886 130.523 122.05 125.128 121.891 118.402L121.909 118.393ZM13.3396 0.999316C13.3396 0.999316 13.3957 0.981686 13.4145 0.972871C13.115 1.06102 12.8249 1.16679 12.5348 1.29021C12.5816 1.27258 12.6284 1.25495 12.6752 1.23732C12.8904 1.14917 13.115 1.07866 13.3302 1.00814L13.3396 0.999316ZM11.6645 1.69573C11.8236 1.6164 11.9921 1.53705 12.1605 1.46653C11.9172 1.58113 11.6739 1.69572 11.4306 1.81913C11.468 1.8015 11.5055 1.77507 11.5429 1.74862C11.5803 1.73099 11.6178 1.71336 11.6645 1.68691V1.69573ZM10.7288 2.23345C10.8411 2.16293 10.9533 2.10122 11.0656 2.03952C10.8598 2.16293 10.6539 2.28635 10.4574 2.42739C10.4761 2.41858 10.4948 2.40096 10.5135 2.38333C10.5884 2.33044 10.6633 2.27753 10.7381 2.23345H10.7288ZM9.69003 2.98276C9.7649 2.92105 9.84912 2.85936 9.92398 2.79765C9.97077 2.76239 10.0269 2.7271 10.0737 2.69184C9.88655 2.83289 9.69939 2.97393 9.52159 3.13261C9.57774 3.08853 9.63389 3.03566 9.69003 2.99159V2.98276ZM8.96948 3.60864C9.01626 3.56457 9.07242 3.52049 9.1192 3.46759C9.13792 3.44996 9.16599 3.43233 9.18471 3.4147C9.00691 3.5822 8.82911 3.7497 8.66067 3.92601C8.76361 3.82022 8.86654 3.70561 8.96948 3.60864ZM8.30507 4.30506C8.30507 4.30506 8.3425 4.26098 8.37057 4.24335C8.18342 4.45491 8.00562 4.67529 7.82782 4.89567C7.93076 4.76344 8.04305 4.6224 8.15535 4.49017C8.21149 4.42847 8.25828 4.36677 8.31443 4.30506H8.30507ZM7.49094 5.31882C7.49094 5.31882 7.53773 5.2571 7.55644 5.23066C7.35993 5.49512 7.17277 5.76839 7.00433 6.05048C7.0324 6.01521 7.05112 5.97998 7.07919 5.9359C7.2102 5.72433 7.35057 5.52157 7.49094 5.31882ZM6.83589 6.33257C6.6768 6.60585 6.52708 6.87912 6.38671 7.16121C6.40543 7.10832 6.4335 7.06426 6.45222 7.01137C6.57387 6.77336 6.70488 6.55296 6.83589 6.33257ZM6.04047 7.93697C6.09662 7.80474 6.15276 7.68133 6.20891 7.55791C6.09662 7.79593 5.99368 8.04274 5.9001 8.28957C5.9001 8.27194 5.90946 8.25431 5.91882 8.23668C5.95625 8.13972 5.99368 8.03394 6.04047 7.93697ZM5.66615 8.95072C5.68487 8.8802 5.71295 8.80969 5.74102 8.73916C5.6568 8.97718 5.58194 9.22399 5.50707 9.47082C5.52579 9.39149 5.5445 9.30333 5.57258 9.224C5.60065 9.12703 5.63808 9.03889 5.66615 8.94193V8.95072ZM5.37606 9.99975C5.31992 10.2466 5.26377 10.4934 5.21698 10.7402C5.2357 10.608 5.26377 10.4758 5.28249 10.3524C5.31056 10.2378 5.33863 10.1232 5.3667 10.0086L5.37606 9.99975ZM5.13276 11.2603C5.09533 11.5336 5.0579 11.8157 5.03918 12.0978C5.0579 11.895 5.06725 11.6835 5.09532 11.4807C5.10468 11.4014 5.1234 11.3309 5.13276 11.2603ZM4.98303 12.6532C4.98303 12.6532 4.98303 12.5826 4.99239 12.5386C4.96431 12.9705 4.95496 13.4113 4.96432 13.8609C4.95496 13.4554 4.96432 13.0499 4.98303 12.6532Z" fill="white"/>
</mask>
<g mask="url(#mask0_4284_15690)">
<g style="mix-blend-mode:darken" opacity="0.7">
<path d="M212.261 104.542L209.95 5.66917C209.772 -2.06186 203.942 -8.61165 196.942 -8.96426L107.668 -13.3719C106.414 -13.4336 105.216 -13.2837 104.084 -12.9664C104.356 -13.0457 104.627 -13.1163 104.908 -13.1692L100.931 -12.3846C100.612 -12.3229 100.304 -12.2435 99.9948 -12.1466C99.9012 -12.1201 99.8076 -12.0849 99.7234 -12.0584C99.4988 -11.9879 99.2836 -11.9086 99.0684 -11.8292C98.9748 -11.794 98.8812 -11.7587 98.7876 -11.7146C98.535 -11.6089 98.2823 -11.4942 98.039 -11.3708C98.0016 -11.3532 97.9642 -11.3356 97.9174 -11.3091C97.6366 -11.1593 97.3652 -11.0006 97.1032 -10.8331C97.0284 -10.789 96.9535 -10.7361 96.8786 -10.6832C96.6821 -10.551 96.495 -10.4188 96.3078 -10.2689C96.2236 -10.2072 96.1487 -10.1455 96.0645 -10.0838C95.868 -9.92512 95.6808 -9.75763 95.4937 -9.59014C95.4469 -9.54607 95.3907 -9.50199 95.344 -9.44909C95.11 -9.22871 94.8948 -8.99951 94.6795 -8.7615C94.6234 -8.69979 94.5766 -8.63809 94.5205 -8.57639C94.3614 -8.39127 94.2023 -8.19731 94.0526 -8.00337C93.9871 -7.92403 93.9309 -7.8359 93.8654 -7.74775C93.725 -7.54499 93.5847 -7.34223 93.4537 -7.13066C93.4069 -7.06014 93.3601 -6.98963 93.3133 -6.9191C93.1449 -6.63701 92.9858 -6.3461 92.8267 -6.05519C92.7986 -5.99349 92.7705 -5.93179 92.7425 -5.87008C92.6208 -5.62325 92.5085 -5.37642 92.4056 -5.1296C92.3681 -5.03263 92.3214 -4.92685 92.2839 -4.82988C92.1904 -4.59186 92.1061 -4.36267 92.0313 -4.11584C92.0032 -4.01887 91.9658 -3.93071 91.9377 -3.83374C91.9283 -3.78967 91.9096 -3.74559 91.9003 -3.70152C91.8535 -3.53403 91.816 -3.35771 91.7693 -3.19021C91.7318 -3.03154 91.685 -2.88168 91.6476 -2.723C91.6008 -2.50262 91.5634 -2.27343 91.526 -2.04423C91.4979 -1.89437 91.4698 -1.7445 91.4511 -1.58582C91.4137 -1.33018 91.3949 -1.07455 91.3762 -0.810095C91.3669 -0.677865 91.3481 -0.545625 91.3388 -0.413395C91.3201 -0.0167059 91.3107 0.388795 91.3201 0.7943L93.6315 99.6669C93.8093 107.398 99.6392 113.948 106.639 114.3L195.913 118.708C196.867 118.752 197.784 118.682 198.673 118.514L202.65 117.729C202.65 117.729 202.585 117.729 202.548 117.747C208.237 116.672 212.401 111.277 212.242 104.551L212.261 104.542Z" fill="#1C1C1C"/>
</g>
</g>
<defs>
<linearGradient id="paint0_linear_4284_15690" x1="142.239" y1="149.826" x2="-39.4716" y2="-67.6662" gradientUnits="userSpaceOnUse">
<stop offset="0.18" stop-color="#0B245D"/>
<stop offset="0.36" stop-color="#091E4E"/>
<stop offset="0.69" stop-color="#041029"/>
<stop offset="1"/>
</linearGradient>
</defs>
</svg>
